{
    "0": [
        {
            "chan": 0,
            "dur": 2,
            "note": 87,
            "part": "picc",
            "vel": 80
        },
        {
            "chan": 1,
            "dur": 2,
            "note": 74,
            "part": "flute",
            "vel": 80
        },
        {
            "chan": 8,
            "dur": 2,
            "note": 39,
            "part": "bass",
            "vel": 80
        },
        {
            "chan": 9,
            "dur": 8,
            "note": 36,
            "part": "drum",
            "vel": 80
        }
    ],
    "16": [
        {
            "chan": 1,
            "dur": 2,
            "note": 75,
            "part": "flute",
            "vel": 80
        },
        {
            "chan": 0,
            "dur": 2,
            "note": 87,
            "part": "picc",
            "vel": 80
        },
        {
            "chan": 8,
            "dur": 2,
            "note": 39,
            "part": "bass",
            "vel": 80
        }
    ],
    "22": [
        {
            "chan": 1,
            "dur": 2,
            "note": 77,
            "part": "flute",
            "vel": 80
        },
        {
            "chan": 0,
            "dur": 2,
            "note": 87,
            "part": "picc",
            "vel": 80
        },
        {
            "chan": 8,
            "dur": 2,
            "note": 39,
            "part": "bass",
            "vel": 80
        }
    ],
    "30": [
        {
            "chan": 1,
            "dur": 2,
            "note": 79,
            "part": "flute",
            "vel": 80
        },
        {
            "chan": 0,
            "dur": 2,
            "note": 87,
            "part": "picc",
            "vel": 80
        },
        {
            "chan": 8,
            "dur": 2,
            "note": 39,
            "part": "bass",
            "vel": 80
        }
    ],
    "32": [
        {
            "chan": 1,
            "dur": 2,
            "note": 81,
            "part": "flute",
            "vel": 80
        },
        {
            "chan": 0,
            "dur": 2,
            "note": 87,
            "part": "picc",
            "vel": 80
        },
        {
            "chan": 8,
            "dur": 2,
            "note": 39,
            "part": "bass",
            "vel": 80
        },
        {
            "chan": 9,
            "dur": 8,
            "note": 36,
            "part": "drum",
            "vel": 80
        }
    ],
    "42": [
        {
            "chan": 1,
            "dur": 2,
            "note": 81,
            "part": "flute",
            "vel": 80
        },
        {
            "chan": 0,
            "dur": 2,
            "note": 87,
            "part": "picc",
            "vel": 80
        },
        {
            "chan": 8,
            "dur": 2,
            "note": 39,
            "part": "bass",
            "vel": 80
        }
    ],
    "44": [
        {
            "chan": 1,
            "dur": 2,
            "note": 79,
            "part": "flute",
            "vel": 80
        }
    ],
    "46": [
        {
            "chan": 1,
            "dur": 2,
            "note": 75,
            "part": "flute",
            "vel": 80
        },
        {
            "chan": 0,
            "dur": 2,
            "note": 87,
            "part": "picc",
            "vel": 80
        },
        {
            "chan": 8,
            "dur": 2,
            "note": 39,
            "part": "bass",
            "vel": 80
        }
    ],
    "48": [
        {
            "chan": 1,
            "dur": 2,
            "note": 77,
            "part": "flute",
            "vel": 80
        }
    ],
    "50": [
        {
            "chan": 1,
            "dur": 2,
            "note": 77,
            "part": "flute",
            "vel": 80
        }
    ],
    "52": [
        {
            "chan": 1,
            "dur": 2,
            "note": 75,
            "part": "flute",
            "vel": 80
        },
        {
            "chan": 0,
            "dur": 2,
            "note": 87,
            "part": "picc",
            "vel": 80
        },
        {
            "chan": 8,
            "dur": 2,
            "note": 39,
            "part": "bass",
            "vel": 80
        }
    ],
    "54": [
        {
            "chan": 1,
            "dur": 2,
            "note": 72,
            "part": "flute",
            "vel": 80
        },
        {
            "chan": 0,
            "dur": 2,
            "note": 87,
            "part": "picc",
            "vel": 80
        },
        {
            "chan": 8,
            "dur": 2,
            "note": 39,
            "part": "bass",
            "vel": 80
        }
    ],
    "56": [
        {
            "chan": 1,
            "dur": 2,
            "note": 75,
            "part": "flute",
            "vel": 80
        }
    ],
    "58": [
        {
            "chan": 1,
            "dur": 2,
            "note": 81,
            "part": "flute",
            "vel": 80
        },
        {
            "chan": 0,
            "dur": 2,
            "note": 87,
            "part": "picc",
            "vel": 80
        },
        {
            "chan": 8,
            "dur": 2,
            "note": 39,
            "part": "bass",
            "vel": 80
        }
    ],
    "60": [
        {
            "chan": 1,
            "dur": 2,
            "note": 79,
            "part": "flute",
            "vel": 80
        },
        {
            "chan": 0,
            "dur": 2,
            "note": 87,
            "part": "picc",
            "vel": 80
        },
        {
            "chan": 8,
            "dur": 2,
            "note": 39,
            "part": "bass",
            "vel": 80
        }
    ],
    "62": [
        {
            "chan": 1,
            "dur": 2,
            "note": 75,
            "part": "flute",
            "vel": 80
        },
        {
            "chan": 0,
            "dur": 2,
            "note": 87,
            "part": "picc",
            "vel": 80
        },
        {
            "chan": 8,
            "dur": 2,
            "note": 39,
            "part": "bass",
            "vel": 80
        }
    ],
    "64": [
        {
            "chan": 1,
            "dur": 2,
            "note": 74,
            "part": "flute",
            "vel": 80
        },
        {
            "chan": 9,
            "dur": 8,
            "note": 42,
            "part": "drum",
            "vel": 80
        },
        {
            "chan": 9,
            "dur": 8,
            "note": 36,
            "part": "drum",
            "vel": 80
        },
        {
            "chan": 0,
            "dur": 16,
            "note": 82,
            "part": "picc",
            "vel": 80
        },
        {
            "chan": 8,
            "dur": 16,
            "note": 31,
            "part": "bass",
            "vel": 80
        }
    ],
    "70": [
        {
            "chan": 1,
            "dur": 2,
            "note": 69,
            "part": "flute",
            "vel": 80
        }
    ],
    "72": [
        {
            "chan": 9,
            "dur": 8,
            "note": 42,
            "part": "drum",
            "vel": 80
        }
    ],
    "76": [
        {
            "chan": 1,
            "dur": 11,
            "note": 70,
            "part": "flute",
            "vel": 80
        }
    ],
    "80": [
        {
            "chan": 9,
            "dur": 8,
            "note": 42,
            "part": "drum",
            "vel": 80
        },
        {
            "chan": 0,
            "dur": 16,
            "note": 81,
            "part": "picc",
            "vel": 80
        },
        {
            "chan": 8,
            "dur": 16,
            "note": 33,
            "part": "bass",
            "vel": 80
        }
    ],
    "88": [
        {
            "chan": 1,
            "dur": 8,
            "note": 72,
            "part": "flute",
            "vel": 80
        },
        {
            "chan": 9,
            "dur": 8,
            "note": 42,
            "part": "drum",
            "vel": 80
        }
    ],
    "96": [
        {
            "chan": 1,
            "dur": 6,
            "note": 74,
            "part": "flute",
            "vel": 80
        },
        {
            "chan": 9,
            "dur": 8,
            "note": 42,
            "part": "drum",
            "vel": 80
        },
        {
            "chan": 9,
            "dur": 8,
            "note": 36,
            "part": "drum",
            "vel": 80
        },
        {
            "chan": 0,
            "dur": 16,
            "note": 79,
            "part": "picc",
            "vel": 80
        },
        {
            "chan": 8,
            "dur": 16,
            "note": 34,
            "part": "bass",
            "vel": 80
        }
    ],
    "102": [
        {
            "chan": 1,
            "dur": 6,
            "note": 75,
            "part": "flute",
            "vel": 80
        }
    ],
    "104": [
        {
            "chan": 9,
            "dur": 8,
            "note": 42,
            "part": "drum",
            "vel": 80
        }
    ],
    "108": [
        {
            "chan": 1,
            "dur": 4,
            "note": 77,
            "part": "flute",
            "vel": 80
        }
    ],
    "112": [
        {
            "chan": 1,
            "dur": 6,
            "note": 79,
            "part": "flute",
            "vel": 80
        },
        {
            "chan": 9,
            "dur": 8,
            "note": 42,
            "part": "drum",
            "vel": 80
        },
        {
            "chan": 0,
            "dur": 12,
            "note": 75,
            "part": "picc",
            "vel": 80
        },
        {
            "chan": 8,
            "dur": 12,
            "note": 36,
            "part": "bass",
            "vel": 80
        }
    ],
    "118": [
        {
            "chan": 1,
            "dur": 6,
            "note": 81,
            "part": "flute",
            "vel": 80
        }
    ],
    "120": [
        {
            "chan": 9,
            "dur": 4,
            "note": 42,
            "part": "drum",
            "vel": 80
        }
    ],
    "124": [
        {
            "chan": 0,
            "dur": 2,
            "note": 86,
            "part": "picc",
            "vel": 80
        },
        {
            "chan": 1,
            "dur": 2,
            "note": 82,
            "part": "flute",
            "vel": 80
        },
        {
            "chan": 8,
            "dur": 2,
            "note": 38,
            "part": "bass",
            "vel": 80
        },
        {
            "chan": 9,
            "dur": 2,
            "note": 46,
            "part": "drum",
            "vel": 80
        }
    ],
    "126": [
        {
            "chan": 9,
            "dur": 1,
            "note": 42,
            "part": "drum",
            "vel": 80
        }
    ],
    "128": [
        {
            "chan": 0,
            "dur": 2,
            "note": 86,
            "part": "picc",
            "vel": 80
        },
        {
            "chan": 1,
            "dur": 2,
            "note": 82,
            "part": "flute",
            "vel": 80
        },
        {
            "chan": 8,
            "dur": 2,
            "note": 38,
            "part": "bass",
            "vel": 80
        },
        {
            "chan": 9,
            "dur": 2,
            "note": 46,
            "part": "drum",
            "vel": 80
        }
    ],
    "130": [
        {
            "chan": 9,
            "dur": 1,
            "note": 42,
            "part": "drum",
            "vel": 80
        }
    ],
    "132": [
        {
            "chan": 0,
            "dur": 2,
            "note": 87,
            "part": "picc",
            "vel": 80
        },
        {
            "chan": 1,
            "dur": 2,
            "note": 74,
            "part": "flute",
            "vel": 80
        },
        {
            "chan": 8,
            "dur": 2,
            "note": 39,
            "part": "bass",
            "vel": 80
        },
        {
            "chan": 9,
            "dur": 2,
            "note": 42,
            "part": "drum",
            "vel": 80
        },
        {
            "chan": 9,
            "dur": 8,
            "note": 36,
            "part": "drum",
            "vel": 80
        }
    ],
    "136": [
        {
            "chan": 9,
            "dur": 2,
            "note": 37,
            "part": "drum",
            "vel": 80
        },
        {
            "chan": 2,
            "dur": 24,
            "note": 58,
            "part": "guit",
            "vel": 80
        },
        {
            "chan": 2,
            "dur": 24,
            "note": 62,
            "part": "guit",
            "vel": 80
        },
        {
            "chan": 2,
            "dur": 24,
            "note": 67,
            "part": "guit",
            "vel": 80
        }
    ],
    "138": [
        {
            "chan": 9,
            "dur": 2,
            "note": 37,
            "part": "drum",
            "vel": 80
        }
    ],
    "140": [
        {
            "chan": 9,
            "dur": 2,
            "note": 42,
            "part": "drum",
            "vel": 80
        }
    ],
    "148": [
        {
            "chan": 1,
            "dur": 2,
            "note": 75,
            "part": "flute",
            "vel": 80
        },
        {
            "chan": 0,
            "dur": 2,
            "note": 87,
            "part": "picc",
            "vel": 80
        },
        {
            "chan": 8,
            "dur": 2,
            "note": 39,
            "part": "bass",
            "vel": 80
        },
        {
            "chan": 9,
            "dur": 2,
            "note": 42,
            "part": "drum",
            "vel": 80
        },
        {
            "chan": 9,
            "dur": 16,
            "note": 36,
            "part": "drum",
            "vel": 80
        }
    ],
    "154": [
        {
            "chan": 1,
            "dur": 2,
            "note": 77,
            "part": "flute",
            "vel": 80
        },
        {
            "chan": 0,
            "dur": 2,
            "note": 87,
            "part": "picc",
            "vel": 80
        },
        {
            "chan": 8,
            "dur": 2,
            "note": 39,
            "part": "bass",
            "vel": 80
        }
    ],
    "156": [
        {
            "chan": 9,
            "dur": 2,
            "note": 42,
            "part": "drum",
            "vel": 80
        }
    ],
    "162": [
        {
            "chan": 1,
            "dur": 2,
            "note": 79,
            "part": "flute",
            "vel": 80
        },
        {
            "chan": 0,
            "dur": 2,
            "note": 87,
            "part": "picc",
            "vel": 80
        },
        {
            "chan": 8,
            "dur": 2,
            "note": 39,
            "part": "bass",
            "vel": 80
        }
    ],
    "164": [
        {
            "chan": 1,
            "dur": 2,
            "note": 81,
            "part": "flute",
            "vel": 80
        },
        {
            "chan": 0,
            "dur": 2,
            "note": 87,
            "part": "picc",
            "vel": 80
        },
        {
            "chan": 8,
            "dur": 2,
            "note": 39,
            "part": "bass",
            "vel": 80
        },
        {
            "chan": 9,
            "dur": 2,
            "note": 42,
            "part": "drum",
            "vel": 80
        },
        {
            "chan": 9,
            "dur": 8,
            "note": 36,
            "part": "drum",
            "vel": 80
        }
    ],
    "168": [
        {
            "chan": 9,
            "dur": 2,
            "note": 37,
            "part": "drum",
            "vel": 80
        },
        {
            "chan": 2,
            "dur": 32,
            "note": 57,
            "part": "guit",
            "vel": 80
        },
        {
            "chan": 2,
            "dur": 32,
            "note": 62,
            "part": "guit",
            "vel": 80
        },
        {
            "chan": 2,
            "dur": 32,
            "note": 67,
            "part": "guit",
            "vel": 80
        }
    ],
    "170": [
        {
            "chan": 9,
            "dur": 2,
            "note": 37,
            "part": "drum",
            "vel": 80
        }
    ],
    "172": [
        {
            "chan": 9,
            "dur": 2,
            "note": 42,
            "part": "drum",
            "vel": 80
        }
    ],
    "174": [
        {
            "chan": 1,
            "dur": 2,
            "note": 81,
            "part": "flute",
            "vel": 80
        },
        {
            "chan": 0,
            "dur": 2,
            "note": 87,
            "part": "picc",
            "vel": 80
        },
        {
            "chan": 8,
            "dur": 2,
            "note": 39,
            "part": "bass",
            "vel": 80
        }
    ],
    "176": [
        {
            "chan": 1,
            "dur": 2,
            "note": 79,
            "part": "flute",
            "vel": 80
        }
    ],
    "178": [
        {
            "chan": 1,
            "dur": 2,
            "note": 75,
            "part": "flute",
            "vel": 80
        },
        {
            "chan": 0,
            "dur": 2,
            "note": 87,
            "part": "picc",
            "vel": 80
        },
        {
            "chan": 8,
            "dur": 2,
            "note": 39,
            "part": "bass",
            "vel": 80
        }
    ],
    "180": [
        {
            "chan": 1,
            "dur": 2,
            "note": 77,
            "part": "flute",
            "vel": 80
        },
        {
            "chan": 9,
            "dur": 2,
            "note": 42,
            "part": "drum",
            "vel": 80
        },
        {
            "chan": 9,
            "dur": 16,
            "note": 36,
            "part": "drum",
            "vel": 80
        }
    ],
    "182": [
        {
            "chan": 1,
            "dur": 2,
            "note": 77,
            "part": "flute",
            "vel": 80
        }
    ],
    "184": [
        {
            "chan": 1,
            "dur": 2,
            "note": 75,
            "part": "flute",
            "vel": 80
        },
        {
            "chan": 0,
            "dur": 2,
            "note": 87,
            "part": "picc",
            "vel": 80
        },
        {
            "chan": 8,
            "dur": 2,
            "note": 39,
            "part": "bass",
            "vel": 80
        }
    ],
    "186": [
        {
            "chan": 1,
            "dur": 2,
            "note": 72,
            "part": "flute",
            "vel": 80
        },
        {
            "chan": 0,
            "dur": 2,
            "note": 87,
            "part": "picc",
            "vel": 80
        },
        {
            "chan": 8,
            "dur": 2,
            "note": 39,
            "part": "bass",
            "vel": 80
        }
    ],
    "188": [
        {
            "chan": 1,
            "dur": 2,
            "note": 75,
            "part": "flute",
            "vel": 80
        },
        {
            "chan": 9,
            "dur": 2,
            "note": 42,
            "part": "drum",
            "vel": 80
        }
    ],
    "190": [
        {
            "chan": 1,
            "dur": 2,
            "note": 81,
            "part": "flute",
            "vel": 80
        },
        {
            "chan": 0,
            "dur": 2,
            "note": 87,
            "part": "picc",
            "vel": 80
        },
        {
            "chan": 8,
            "dur": 2,
            "note": 39,
            "part": "bass",
            "vel": 80
        }
    ],
    "192": [
        {
            "chan": 1,
            "dur": 2,
            "note": 79,
            "part": "flute",
            "vel": 80
        },
        {
            "chan": 0,
            "dur": 2,
            "note": 87,
            "part": "picc",
            "vel": 80
        },
        {
            "chan": 8,
            "dur": 2,
            "note": 39,
            "part": "bass",
            "vel": 80
        }
    ],
    "194": [
        {
            "chan": 1,
            "dur": 2,
            "note": 75,
            "part": "flute",
            "vel": 80
        },
        {
            "chan": 0,
            "dur": 2,
            "note": 87,
            "part": "picc",
            "vel": 80
        },
        {
            "chan": 8,
            "dur": 2,
            "note": 39,
            "part": "bass",
            "vel": 80
        }
    ],
    "196": [
        {
            "chan": 1,
            "dur": 2,
            "note": 74,
            "part": "flute",
            "vel": 80
        },
        {
            "chan": 9,
            "dur": 8,
            "note": 42,
            "part": "drum",
            "vel": 80
        },
        {
            "chan": 9,
            "dur": 8,
            "note": 36,
            "part": "drum",
            "vel": 80
        },
        {
            "chan": 0,
            "dur": 16,
            "note": 82,
            "part": "picc",
            "vel": 80
        },
        {
            "chan": 8,
            "dur": 16,
            "note": 31,
            "part": "bass",
            "vel": 80
        }
    ],
    "200": [
        {
            "chan": 2,
            "dur": 24,
            "note": 55,
            "part": "guit",
            "vel": 80
        },
        {
            "chan": 2,
            "dur": 24,
            "note": 62,
            "part": "guit",
            "vel": 80
        },
        {
            "chan": 2,
            "dur": 24,
            "note": 67,
            "part": "guit",
            "vel": 80
        }
    ],
    "202": [
        {
            "chan": 1,
            "dur": 2,
            "note": 69,
            "part": "flute",
            "vel": 80
        }
    ],
    "204": [
        {
            "chan": 9,
            "dur": 8,
            "note": 42,
            "part": "drum",
            "vel": 80
        }
    ],
    "208": [
        {
            "chan": 1,
            "dur": 11,
            "note": 70,
            "part": "flute",
            "vel": 80
        }
    ],
    "212": [
        {
            "chan": 9,
            "dur": 8,
            "note": 42,
            "part": "drum",
            "vel": 80
        },
        {
            "chan": 0,
            "dur": 16,
            "note": 81,
            "part": "picc",
            "vel": 80
        },
        {
            "chan": 8,
            "dur": 16,
            "note": 33,
            "part": "bass",
            "vel": 80
        }
    ],
    "220": [
        {
            "chan": 1,
            "dur": 8,
            "note": 72,
            "part": "flute",
            "vel": 80
        },
        {
            "chan": 9,
            "dur": 8,
            "note": 42,
            "part": "drum",
            "vel": 80
        }
    ],
    "228": [
        {
            "chan": 9,
            "dur": 2,
            "note": 46,
            "part": "drum",
            "vel": 80
        },
        {
            "chan": 1,
            "dur": 6,
            "note": 77,
            "part": "flute",
            "vel": 80
        },
        {
            "chan": 0,
            "dur": 6,
            "note": 82,
            "part": "picc",
            "vel": 80
        },
        {
            "chan": 9,
            "dur": 6,
            "note": 36,
            "part": "drum",
            "vel": 80
        },
        {
            "chan": 2,
            "dur": 16,
            "note": 50,
            "part": "guit",
            "vel": 80
        },
        {
            "chan": 2,
            "dur": 16,
            "note": 53,
            "part": "guit",
            "vel": 80
        },
        {
            "chan": 2,
            "dur": 16,
            "note": 58,
            "part": "guit",
            "vel": 80
        },
        {
            "chan": 8,
            "dur": 16,
            "note": 38,
            "part": "bass",
            "vel": 80
        }
    ],
    "234": [
        {
            "chan": 9,
            "dur": 2,
            "note": 46,
            "part": "drum",
            "vel": 80
        },
        {
            "chan": 9,
            "dur": 2,
            "note": 36,
            "part": "drum",
            "vel": 80
        },
        {
            "chan": 1,
            "dur": 6,
            "note": 77,
            "part": "flute",
            "vel": 80
        },
        {
            "chan": 0,
            "dur": 6,
            "note": 82,
            "part": "picc",
            "vel": 80
        }
    ],
    "236": [
        {
            "chan": 9,
            "dur": 4,
            "note": 38,
            "part": "drum",
            "vel": 80
        }
    ],
    "240": [
        {
            "chan": 1,
            "dur": 4,
            "note": 77,
            "part": "flute",
            "vel": 80
        },
        {
            "chan": 0,
            "dur": 4,
            "note": 82,
            "part": "picc",
            "vel": 80
        },
        {
            "chan": 9,
            "dur": 4,
            "note": 36,
            "part": "drum",
            "vel": 80
        }
    ],
    "244": [
        {
            "chan": 9,
            "dur": 4,
            "note": 36,
            "part": "drum",
            "vel": 80
        },
        {
            "chan": 1,
            "dur": 6,
            "note": 77,
            "part": "flute",
            "vel": 80
        },
        {
            "chan": 0,
            "dur": 6,
            "note": 84,
            "part": "picc",
            "vel": 80
        },
        {
            "chan": 2,
            "dur": 8,
            "note": 53,
            "part": "guit",
            "vel": 80
        },
        {
            "chan": 8,
            "dur": 8,
            "note": 38,
            "part": "bass",
            "vel": 80
        },
        {
            "chan": 9,
            "dur": 8,
            "note": 42,
            "part": "drum",
            "vel": 80
        }
    ],
    "245": [
        {
            "chan": 2,
            "dur": 7,
            "note": 57,
            "part": "guit",
            "vel": 80
        }
    ],
    "246": [
        {
            "chan": 2,
            "dur": 6,
            "note": 62,
            "part": "guit",
            "vel": 80
        }
    ],
    "248": [
        {
            "chan": 9,
            "dur": 4,
            "note": 36,
            "part": "drum",
            "vel": 80
        }
    ],
    "250": [
        {
            "chan": 1,
            "dur": 2,
            "note": 77,
            "part": "flute",
            "vel": 80
        },
        {
            "chan": 0,
            "dur": 2,
            "note": 86,
            "part": "picc",
            "vel": 80
        }
    ],
    "252": [
        {
            "chan": 9,
            "dur": 4,
            "note": 38,
            "part": "drum",
            "vel": 80
        },
        {
            "chan": 9,
            "dur": 4,
            "note": 52,
            "part": "drum",
            "vel": 80
        }
    ],
    "256": [
        {
            "chan": 1,
            "dur": 2,
            "note": 87,
            "part": "flute",
            "vel": 80
        },
        {
            "chan": 0,
            "dur": 2,
            "note": 91,
            "part": "picc",
            "vel": 80
        },
        {
            "chan": 2,
            "dur": 2,
            "note": 63,
            "part": "guit",
            "vel": 80
        },
        {
            "chan": 9,
            "dur": 2,
            "note": 42,
            "part": "drum",
            "vel": 80
        },
        {
            "chan": 9,
            "dur": 2,
            "note": 36,
            "part": "drum",
            "vel": 80
        },
        {
            "chan": 8,
            "dur": 6,
            "note": 39,
            "part": "bass",
            "vel": 80
        }
    ],
    "258": [
        {
            "chan": 1,
            "dur": 2,
            "note": 84,
            "part": "flute",
            "vel": 80
        },
        {
            "chan": 0,
            "dur": 2,
            "note": 87,
            "part": "picc",
            "vel": 80
        },
        {
            "chan": 2,
            "dur": 2,
            "note": 60,
            "part": "guit",
            "vel": 80
        },
        {
            "chan": 9,
            "dur": 2,
            "note": 36,
            "part": "drum",
            "vel": 80
        }
    ],
    "260": [
        {
            "chan": 1,
            "dur": 2,
            "note": 79,
            "part": "flute",
            "vel": 80
        },
        {
            "chan": 0,
            "dur": 2,
            "note": 84,
            "part": "picc",
            "vel": 80
        },
        {
            "chan": 2,
            "dur": 2,
            "note": 55,
            "part": "guit",
            "vel": 80
        },
        {
            "chan": 9,
            "dur": 2,
            "note": 38,
            "part": "drum",
            "vel": 80
        }
    ],
    "262": [
        {
            "chan": 1,
            "dur": 2,
            "note": 84,
            "part": "flute",
            "vel": 80
        },
        {
            "chan": 0,
            "dur": 2,
            "note": 89,
            "part": "picc",
            "vel": 80
        },
        {
            "chan": 2,
            "dur": 2,
            "note": 60,
            "part": "guit",
            "vel": 80
        },
        {
            "chan": 9,
            "dur": 2,
            "note": 36,
            "part": "drum",
            "vel": 80
        },
        {
            "chan": 8,
            "dur": 6,
            "note": 41,
            "part": "bass",
            "vel": 80
        }
    ],
    "264": [
        {
            "chan": 1,
            "dur": 2,
            "note": 81,
            "part": "flute",
            "vel": 80
        },
        {
            "chan": 0,
            "dur": 2,
            "note": 86,
            "part": "picc",
            "vel": 80
        },
        {
            "chan": 2,
            "dur": 2,
            "note": 57,
            "part": "guit",
            "vel": 80
        },
        {
            "chan": 9,
            "dur": 2,
            "note": 36,
            "part": "drum",
            "vel": 80
        }
    ],
    "266": [
        {
            "chan": 1,
            "dur": 2,
            "note": 74,
            "part": "flute",
            "vel": 80
        },
        {
            "chan": 0,
            "dur": 2,
            "note": 81,
            "part": "picc",
            "vel": 80
        },
        {
            "chan": 2,
            "dur": 2,
            "note": 50,
            "part": "guit",
            "vel": 80
        },
        {
            "chan": 9,
            "dur": 2,
            "note": 38,
            "part": "drum",
            "vel": 80
        }
    ],
    "268": [
        {
            "chan": 9,
            "dur": 4,
            "note": 46,
            "part": "drum",
            "vel": 80
        }
    ],
    "272": [
        {
            "chan": 8,
            "dur": 2,
            "note": 31,
            "part": "bass",
            "vel": 80
        },
        {
            "chan": 9,
            "dur": 4,
            "note": 44,
            "part": "drum",
            "vel": 80
        },
        {
            "chan": 9,
            "dur": 4,
            "note": 36,
            "part": "drum",
            "vel": 80
        }
    ],
    "274": [
        {
            "chan": 0,
            "dur": 2,
            "note": 75,
            "part": "picc",
            "vel": 80
        }
    ],
    "276": [
        {
            "chan": 0,
            "dur": 2,
            "note": 74,
            "part": "picc",
            "vel": 80
        }
    ],
    "278": [
        {
            "chan": 1,
            "dur": 2,
            "note": 70,
            "part": "flute",
            "vel": 80
        },
        {
            "chan": 9,
            "dur": 2,
            "note": 46,
            "part": "drum",
            "vel": 80
        }
    ],
    "280": [
        {
            "chan": 1,
            "dur": 2,
            "note": 67,
            "part": "flute",
            "vel": 80
        },
        {
            "chan": 2,
            "dur": 2,
            "note": 43,
            "part": "guit",
            "vel": 80
        },
        {
            "chan": 2,
            "dur": 2,
            "note": 57,
            "part": "guit",
            "vel": 80
        },
        {
            "chan": 8,
            "dur": 2,
            "note": 31,
            "part": "bass",
            "vel": 80
        },
        {
            "chan": 9,
            "dur": 2,
            "note": 44,
            "part": "drum",
            "vel": 80
        },
        {
            "chan": 9,
            "dur": 2,
            "note": 35,
            "part": "drum",
            "vel": 80
        }
    ],
    "284": [
        {
            "chan": 0,
            "dur": 2,
            "note": 75,
            "part": "picc",
            "vel": 80
        }
    ],
    "286": [
        {
            "chan": 0,
            "dur": 2,
            "note": 74,
            "part": "picc",
            "vel": 80
        }
    ],
    "288": [
        {
            "chan": 1,
            "dur": 2,
            "note": 70,
            "part": "flute",
            "vel": 80
        },
        {
            "chan": 9,
            "dur": 2,
            "note": 46,
            "part": "drum",
            "vel": 80
        }
    ],
    "290": [
        {
            "chan": 1,
            "dur": 2,
            "note": 67,
            "part": "flute",
            "vel": 80
        },
        {
            "chan": 2,
            "dur": 2,
            "note": 43,
            "part": "guit",
            "vel": 80
        },
        {
            "chan": 2,
            "dur": 2,
            "note": 57,
            "part": "guit",
            "vel": 80
        },
        {
            "chan": 8,
            "dur": 2,
            "note": 31,
            "part": "bass",
            "vel": 80
        },
        {
            "chan": 9,
            "dur": 2,
            "note": 44,
            "part": "drum",
            "vel": 80
        },
        {
            "chan": 9,
            "dur": 2,
            "note": 35,
            "part": "drum",
            "vel": 80
        }
    ],
    "294": [
        {
            "chan": 1,
            "dur": 2,
            "note": 67,
            "part": "flute",
            "vel": 80
        },
        {
            "chan": 2,
            "dur": 2,
            "note": 43,
            "part": "guit",
            "vel": 80
        },
        {
            "chan": 2,
            "dur": 2,
            "note": 57,
            "part": "guit",
            "vel": 80
        },
        {
            "chan": 8,
            "dur": 2,
            "note": 31,
            "part": "bass",
            "vel": 80
        },
        {
            "chan": 9,
            "dur": 2,
            "note": 35,
            "part": "drum",
            "vel": 80
        }
    ],
    "298": [
        {
            "chan": 0,
            "dur": 2,
            "note": 75,
            "part": "picc",
            "vel": 80
        }
    ],
    "300": [
        {
            "chan": 0,
            "dur": 2,
            "note": 74,
            "part": "picc",
            "vel": 80
        }
    ],
    "302": [
        {
            "chan": 1,
            "dur": 2,
            "note": 70,
            "part": "flute",
            "vel": 80
        },
        {
            "chan": 9,
            "dur": 2,
            "note": 46,
            "part": "drum",
            "vel": 80
        }
    ],
    "304": [
        {
            "chan": 1,
            "dur": 2,
            "note": 67,
            "part": "flute",
            "vel": 80
        },
        {
            "chan": 2,
            "dur": 2,
            "note": 43,
            "part": "guit",
            "vel": 80
        },
        {
            "chan": 2,
            "dur": 2,
            "note": 57,
            "part": "guit",
            "vel": 80
        },
        {
            "chan": 9,
            "dur": 4,
            "note": 42,
            "part": "drum",
            "vel": 80
        },
        {
            "chan": 9,
            "dur": 4,
            "note": 36,
            "part": "drum",
            "vel": 80
        },
        {
            "chan": 8,
            "dur": 8,
            "note": 31,
            "part": "bass",
            "vel": 80
        }
    ],
    "308": [
        {
            "chan": 1,
            "dur": 2,
            "note": 81,
            "part": "flute",
            "vel": 80
        },
        {
            "chan": 0,
            "dur": 2,
            "note": 81,
            "part": "picc",
            "vel": 80
        }
    ],
    "310": [
        {
            "chan": 1,
            "dur": 2,
            "note": 79,
            "part": "flute",
            "vel": 80
        },
        {
            "chan": 2,
            "dur": 2,
            "note": 58,
            "part": "guit",
            "vel": 80
        }
    ],
    "312": [
        {
            "chan": 1,
            "dur": 2,
            "note": 75,
            "part": "flute",
            "vel": 80
        },
        {
            "chan": 0,
            "dur": 2,
            "note": 75,
            "part": "picc",
            "vel": 80
        },
        {
            "chan": 9,
            "dur": 2,
            "note": 42,
            "part": "drum",
            "vel": 80
        },
        {
            "chan": 9,
            "dur": 2,
            "note": 35,
            "part": "drum",
            "vel": 80
        },
        {
            "chan": 8,
            "dur": 8,
            "note": 33,
            "part": "bass",
            "vel": 80
        }
    ],
    "314": [
        {
            "chan": 1,
            "dur": 2,
            "note": 77,
            "part": "flute",
            "vel": 80
        },
        {
            "chan": 2,
            "dur": 2,
            "note": 57,
            "part": "guit",
            "vel": 80
        },
        {
            "chan": 9,
            "dur": 2,
            "note": 38,
            "part": "drum",
            "vel": 80
        }
    ],
    "316": [
        {
            "chan": 1,
            "dur": 2,
            "note": 77,
            "part": "flute",
            "vel": 80
        },
        {
            "chan": 0,
            "dur": 2,
            "note": 77,
            "part": "picc",
            "vel": 80
        }
    ],
    "318": [
        {
            "chan": 1,
            "dur": 2,
            "note": 75,
            "part": "flute",
            "vel": 80
        },
        {
            "chan": 2,
            "dur": 2,
            "note": 55,
            "part": "guit",
            "vel": 80
        },
        {
            "chan": 9,
            "dur": 2,
            "note": 38,
            "part": "drum",
            "vel": 80
        }
    ],
    "320": [
        {
            "chan": 1,
            "dur": 2,
            "note": 72,
            "part": "flute",
            "vel": 80
        },
        {
            "chan": 0,
            "dur": 2,
            "note": 84,
            "part": "picc",
            "vel": 80
        },
        {
            "chan": 9,
            "dur": 2,
            "note": 42,
            "part": "drum",
            "vel": 80
        },
        {
            "chan": 8,
            "dur": 8,
            "note": 34,
            "part": "bass",
            "vel": 80
        }
    ],
    "322": [
        {
            "chan": 1,
            "dur": 2,
            "note": 75,
            "part": "flute",
            "vel": 80
        },
        {
            "chan": 2,
            "dur": 2,
            "note": 55,
            "part": "guit",
            "vel": 80
        },
        {
            "chan": 9,
            "dur": 2,
            "note": 38,
            "part": "drum",
            "vel": 80
        }
    ],
    "324": [
        {
            "chan": 1,
            "dur": 2,
            "note": 81,
            "part": "flute",
            "vel": 80
        },
        {
            "chan": 0,
            "dur": 2,
            "note": 81,
            "part": "picc",
            "vel": 80
        }
    ],
    "326": [
        {
            "chan": 1,
            "dur": 2,
            "note": 79,
            "part": "flute",
            "vel": 80
        },
        {
            "chan": 2,
            "dur": 2,
            "note": 53,
            "part": "guit",
            "vel": 80
        },
        {
            "chan": 9,
            "dur": 2,
            "note": 36,
            "part": "drum",
            "vel": 80
        }
    ],
    "328": [
        {
            "chan": 1,
            "dur": 2,
            "note": 75,
            "part": "flute",
            "vel": 80
        },
        {
            "chan": 0,
            "dur": 2,
            "note": 75,
            "part": "picc",
            "vel": 80
        },
        {
            "chan": 8,
            "dur": 2,
            "note": 38,
            "part": "bass",
            "vel": 80
        }
    ],
    "330": [
        {
            "chan": 0,
            "dur": 2,
            "note": 79,
            "part": "picc",
            "vel": 80
        },
        {
            "chan": 2,
            "dur": 2,
            "note": 51,
            "part": "guit",
            "vel": 80
        },
        {
            "chan": 9,
            "dur": 2,
            "note": 42,
            "part": "drum",
            "vel": 80
        },
        {
            "chan": 8,
            "dur": 6,
            "note": 34,
            "part": "bass",
            "vel": 80
        }
    ],
    "332": [
        {
            "chan": 0,
            "dur": 2,
            "note": 81,
            "part": "picc",
            "vel": 80
        },
        {
            "chan": 2,
            "dur": 2,
            "note": 50,
            "part": "guit",
            "vel": 80
        },
        {
            "chan": 9,
            "dur": 2,
            "note": 42,
            "part": "drum",
            "vel": 80
        }
    ],
    "334": [
        {
            "chan": 0,
            "dur": 2,
            "note": 82,
            "part": "picc",
            "vel": 80
        },
        {
            "chan": 2,
            "dur": 2,
            "note": 46,
            "part": "guit",
            "vel": 80
        },
        {
            "chan": 9,
            "dur": 2,
            "note": 42,
            "part": "drum",
            "vel": 80
        }
    ],
    "336": [
        {
            "chan": 0,
            "dur": 2,
            "note": 86,
            "part": "picc",
            "vel": 80
        },
        {
            "chan": 2,
            "dur": 2,
            "note": 43,
            "part": "guit",
            "vel": 80
        },
        {
            "chan": 8,
            "dur": 2,
            "note": 31,
            "part": "bass",
            "vel": 80
        },
        {
            "chan": 9,
            "dur": 4,
            "note": 46,
            "part": "drum",
            "vel": 80
        },
        {
            "chan": 9,
            "dur": 4,
            "note": 51,
            "part": "drum",
            "vel": 80
        },
        {
            "chan": 9,
            "dur": 4,
            "note": 36,
            "part": "drum",
            "vel": 80
        }
    ],
    "338": [
        {
            "chan": 0,
            "dur": 2,
            "note": 75,
            "part": "picc",
            "vel": 80
        }
    ],
    "340": [
        {
            "chan": 0,
            "dur": 2,
            "note": 74,
            "part": "picc",
            "vel": 80
        },
        {
            "chan": 9,
            "dur": 4,
            "note": 51,
            "part": "drum",
            "vel": 80
        }
    ],
    "342": [
        {
            "chan": 1,
            "dur": 2,
            "note": 70,
            "part": "flute",
            "vel": 80
        }
    ],
    "344": [
        {
            "chan": 1,
            "dur": 2,
            "note": 67,
            "part": "flute",
            "vel": 80
        },
        {
            "chan": 2,
            "dur": 2,
            "note": 43,
            "part": "guit",
            "vel": 80
        },
        {
            "chan": 2,
            "dur": 2,
            "note": 57,
            "part": "guit",
            "vel": 80
        },
        {
            "chan": 8,
            "dur": 2,
            "note": 31,
            "part": "bass",
            "vel": 80
        },
        {
            "chan": 9,
            "dur": 2,
            "note": 44,
            "part": "drum",
            "vel": 80
        },
        {
            "chan": 9,
            "dur": 2,
            "note": 35,
            "part": "drum",
            "vel": 80
        },
        {
            "chan": 9,
            "dur": 4,
            "note": 38,
            "part": "drum",
            "vel": 80
        },
        {
            "chan": 9,
            "dur": 4,
            "note": 46,
            "part": "drum",
            "vel": 80
        },
        {
            "chan": 9,
            "dur": 4,
            "note": 51,
            "part": "drum",
            "vel": 80
        }
    ],
    "348": [
        {
            "chan": 0,
            "dur": 2,
            "note": 75,
            "part": "picc",
            "vel": 80
        },
        {
            "chan": 9,
            "dur": 4,
            "note": 51,
            "part": "drum",
            "vel": 80
        }
    ],
    "350": [
        {
            "chan": 0,
            "dur": 2,
            "note": 74,
            "part": "picc",
            "vel": 80
        }
    ],
    "352": [
        {
            "chan": 1,
            "dur": 2,
            "note": 70,
            "part": "flute",
            "vel": 80
        },
        {
            "chan": 9,
            "dur": 2,
            "note": 36,
            "part": "drum",
            "vel": 80
        },
        {
            "chan": 9,
            "dur": 4,
            "note": 51,
            "part": "drum",
            "vel": 80
        }
    ],
    "354": [
        {
            "chan": 1,
            "dur": 2,
            "note": 67,
            "part": "flute",
            "vel": 80
        },
        {
            "chan": 2,
            "dur": 2,
            "note": 43,
            "part": "guit",
            "vel": 80
        },
        {
            "chan": 2,
            "dur": 2,
            "note": 57,
            "part": "guit",
            "vel": 80
        },
        {
            "chan": 8,
            "dur": 2,
            "note": 31,
            "part": "bass",
            "vel": 80
        },
        {
            "chan": 9,
            "dur": 2,
            "note": 44,
            "part": "drum",
            "vel": 80
        },
        {
            "chan": 9,
            "dur": 2,
            "note": 35,
            "part": "drum",
            "vel": 80
        }
    ],
    "356": [
        {
            "chan": 9,
            "dur": 4,
            "note": 51,
            "part": "drum",
            "vel": 80
        }
    ],
    "358": [
        {
            "chan": 1,
            "dur": 2,
            "note": 67,
            "part": "flute",
            "vel": 80
        },
        {
            "chan": 2,
            "dur": 2,
            "note": 43,
            "part": "guit",
            "vel": 80
        },
        {
            "chan": 2,
            "dur": 2,
            "note": 57,
            "part": "guit",
            "vel": 80
        },
        {
            "chan": 8,
            "dur": 2,
            "note": 31,
            "part": "bass",
            "vel": 80
        },
        {
            "chan": 9,
            "dur": 2,
            "note": 35,
            "part": "drum",
            "vel": 80
        }
    ],
    "360": [
        {
            "chan": 9,
            "dur": 4,
            "note": 38,
            "part": "drum",
            "vel": 80
        },
        {
            "chan": 9,
            "dur": 4,
            "note": 51,
            "part": "drum",
            "vel": 80
        }
    ],
    "362": [
        {
            "chan": 0,
            "dur": 2,
            "note": 75,
            "part": "picc",
            "vel": 80
        }
    ],
    "364": [
        {
            "chan": 0,
            "dur": 2,
            "note": 74,
            "part": "picc",
            "vel": 80
        },
        {
            "chan": 9,
            "dur": 2,
            "note": 42,
            "part": "drum",
            "vel": 80
        }
    ],
    "366": [
        {
            "chan": 1,
            "dur": 2,
            "note": 70,
            "part": "flute",
            "vel": 80
        },
        {
            "chan": 9,
            "dur": 2,
            "note": 42,
            "part": "drum",
            "vel": 80
        }
    ],
    "368": [
        {
            "chan": 1,
            "dur": 2,
            "note": 67,
            "part": "flute",
            "vel": 80
        },
        {
            "chan": 9,
            "dur": 4,
            "note": 51,
            "part": "drum",
            "vel": 80
        },
        {
            "chan": 9,
            "dur": 4,
            "note": 36,
            "part": "drum",
            "vel": 80
        },
        {
            "chan": 8,
            "dur": 8,
            "note": 31,
            "part": "bass",
            "vel": 80
        }
    ],
    "370": [
        {
            "chan": 1,
            "dur": 2,
            "note": 69,
            "part": "flute",
            "vel": 80
        }
    ],
    "372": [
        {
            "chan": 1,
            "dur": 2,
            "note": 67,
            "part": "flute",
            "vel": 80
        },
        {
            "chan": 9,
            "dur": 2,
            "note": 51,
            "part": "drum",
            "vel": 80
        }
    ],
    "374": [
        {
            "chan": 9,
            "dur": 2,
            "note": 38,
            "part": "drum",
            "vel": 80
        },
        {
            "chan": 1,
            "dur": 25,
            "note": 74,
            "part": "flute",
            "vel": 80
        }
    ],
    "376": [
        {
            "chan": 0,
            "dur": 2,
            "note": 75,
            "part": "picc",
            "vel": 80
        },
        {
            "chan": 9,
            "dur": 4,
            "note": 51,
            "part": "drum",
            "vel": 80
        },
        {
            "chan": 8,
            "dur": 8,
            "note": 33,
            "part": "bass",
            "vel": 80
        }
    ],
    "378": [
        {
            "chan": 0,
            "dur": 2,
            "note": 74,
            "part": "picc",
            "vel": 80
        }
    ],
    "380": [
        {
            "chan": 0,
            "dur": 2,
            "note": 75,
            "part": "picc",
            "vel": 80
        },
        {
            "chan": 9,
            "dur": 4,
            "note": 38,
            "part": "drum",
            "vel": 80
        },
        {
            "chan": 9,
            "dur": 4,
            "note": 51,
            "part": "drum",
            "vel": 80
        }
    ],
    "382": [
        {
            "chan": 0,
            "dur": 18,
            "note": 79,
            "part": "picc",
            "vel": 80
        }
    ],
    "384": [
        {
            "chan": 2,
            "dur": 2,
            "note": 70,
            "part": "guit",
            "vel": 80
        },
        {
            "chan": 9,
            "dur": 2,
            "note": 51,
            "part": "drum",
            "vel": 80
        },
        {
            "chan": 8,
            "dur": 10,
            "note": 34,
            "part": "bass",
            "vel": 80
        }
    ],
    "386": [
        {
            "chan": 2,
            "dur": 2,
            "note": 69,
            "part": "guit",
            "vel": 80
        },
        {
            "chan": 9,
            "dur": 2,
            "note": 38,
            "part": "drum",
            "vel": 80
        },
        {
            "chan": 9,
            "dur": 2,
            "note": 44,
            "part": "drum",
            "vel": 80
        },
        {
            "chan": 9,
            "dur": 2,
            "note": 35,
            "part": "drum",
            "vel": 80
        }
    ],
    "388": [
        {
            "chan": 2,
            "dur": 2,
            "note": 70,
            "part": "guit",
            "vel": 80
        },
        {
            "chan": 9,
            "dur": 4,
            "note": 51,
            "part": "drum",
            "vel": 80
        }
    ],
    "390": [
        {
            "chan": 9,
            "dur": 2,
            "note": 35,
            "part": "drum",
            "vel": 80
        },
        {
            "chan": 2,
            "dur": 10,
            "note": 74,
            "part": "guit",
            "vel": 80
        }
    ],
    "392": [
        {
            "chan": 9,
            "dur": 2,
            "note": 51,
            "part": "drum",
            "vel": 80
        }
    ],
    "394": [
        {
            "chan": 8,
            "dur": 2,
            "note": 45,
            "part": "bass",
            "vel": 80
        },
        {
            "chan": 9,
            "dur": 2,
            "note": 46,
            "part": "drum",
            "vel": 80
        }
    ],
    "396": [
        {
            "chan": 8,
            "dur": 2,
            "note": 43,
            "part": "bass",
            "vel": 80
        },
        {
            "chan": 9,
            "dur": 2,
            "note": 46,
            "part": "drum",
            "vel": 80
        }
    ],
    "398": [
        {
            "chan": 8,
            "dur": 2,
            "note": 38,
            "part": "bass",
            "vel": 80
        },
        {
            "chan": 9,
            "dur": 2,
            "note": 46,
            "part": "drum",
            "vel": 80
        }
    ],
    "400": [
        {
            "chan": 1,
            "dur": 2,
            "note": 75,
            "part": "flute",
            "vel": 80
        },
        {
            "chan": 0,
            "dur": 2,
            "note": 87,
            "part": "picc",
            "vel": 80
        },
        {
            "chan": 8,
            "dur": 2,
            "note": 39,
            "part": "bass",
            "vel": 80
        },
        {
            "chan": 9,
            "dur": 4,
            "note": 51,
            "part": "drum",
            "vel": 80
        },
        {
            "chan": 9,
            "dur": 4,
            "note": 44,
            "part": "drum",
            "vel": 80
        },
        {
            "chan": 9,
            "dur": 4,
            "note": 36,
            "part": "drum",
            "vel": 80
        }
    ],
    "404": [
        {
            "chan": 9,
            "dur": 2,
            "note": 51,
            "part": "drum",
            "vel": 80
        }
    ],
    "406": [
        {
            "chan": 1,
            "dur": 2,
            "note": 77,
            "part": "flute",
            "vel": 80
        },
        {
            "chan": 0,
            "dur": 2,
            "note": 87,
            "part": "picc",
            "vel": 80
        },
        {
            "chan": 8,
            "dur": 2,
            "note": 39,
            "part": "bass",
            "vel": 80
        },
        {
            "chan": 9,
            "dur": 2,
            "note": 38,
            "part": "drum",
            "vel": 80
        }
    ],
    "408": [
        {
            "chan": 9,
            "dur": 4,
            "note": 46,
            "part": "drum",
            "vel": 80
        },
        {
            "chan": 9,
            "dur": 4,
            "note": 51,
            "part": "drum",
            "vel": 80
        }
    ],
    "412": [
        {
            "chan": 9,
            "dur": 4,
            "note": 51,
            "part": "drum",
            "vel": 80
        }
    ],
    "414": [
        {
            "chan": 1,
            "dur": 2,
            "note": 79,
            "part": "flute",
            "vel": 80
        },
        {
            "chan": 0,
            "dur": 2,
            "note": 87,
            "part": "picc",
            "vel": 80
        },
        {
            "chan": 8,
            "dur": 2,
            "note": 39,
            "part": "bass",
            "vel": 80
        }
    ],
    "416": [
        {
            "chan": 1,
            "dur": 2,
            "note": 81,
            "part": "flute",
            "vel": 80
        },
        {
            "chan": 0,
            "dur": 2,
            "note": 87,
            "part": "picc",
            "vel": 80
        },
        {
            "chan": 8,
            "dur": 2,
            "note": 39,
            "part": "bass",
            "vel": 80
        },
        {
            "chan": 9,
            "dur": 2,
            "note": 36,
            "part": "drum",
            "vel": 80
        },
        {
            "chan": 9,
            "dur": 4,
            "note": 51,
            "part": "drum",
            "vel": 80
        }
    ],
    "418": [
        {
            "chan": 9,
            "dur": 2,
            "note": 44,
            "part": "drum",
            "vel": 80
        },
        {
            "chan": 9,
            "dur": 2,
            "note": 35,
            "part": "drum",
            "vel": 80
        }
    ],
    "420": [
        {
            "chan": 9,
            "dur": 4,
            "note": 51,
            "part": "drum",
            "vel": 80
        }
    ],
    "422": [
        {
            "chan": 9,
            "dur": 2,
            "note": 35,
            "part": "drum",
            "vel": 80
        }
    ],
    "424": [
        {
            "chan": 1,
            "dur": 2,
            "note": 82,
            "part": "flute",
            "vel": 80
        },
        {
            "chan": 8,
            "dur": 4,
            "note": 43,
            "part": "bass",
            "vel": 80
        },
        {
            "chan": 9,
            "dur": 4,
            "note": 38,
            "part": "drum",
            "vel": 80
        },
        {
            "chan": 9,
            "dur": 4,
            "note": 51,
            "part": "drum",
            "vel": 80
        }
    ],
    "426": [
        {
            "chan": 1,
            "dur": 2,
            "note": 81,
            "part": "flute",
            "vel": 80
        }
    ],
    "428": [
        {
            "chan": 1,
            "dur": 2,
            "note": 82,
            "part": "flute",
            "vel": 80
        },
        {
            "chan": 9,
            "dur": 2,
            "note": 42,
            "part": "drum",
            "vel": 80
        },
        {
            "chan": 8,
            "dur": 4,
            "note": 39,
            "part": "bass",
            "vel": 80
        }
    ],
    "430": [
        {
            "chan": 1,
            "dur": 2,
            "note": 86,
            "part": "flute",
            "vel": 80
        },
        {
            "chan": 9,
            "dur": 2,
            "note": 42,
            "part": "drum",
            "vel": 80
        }
    ],
    "432": [
        {
            "chan": 1,
            "dur": 2,
            "note": 74,
            "part": "flute",
            "vel": 80
        },
        {
            "chan": 0,
            "dur": 2,
            "note": 86,
            "part": "picc",
            "vel": 80
        },
        {
            "chan": 8,
            "dur": 2,
            "note": 38,
            "part": "bass",
            "vel": 80
        },
        {
            "chan": 9,
            "dur": 4,
            "note": 46,
            "part": "drum",
            "vel": 80
        },
        {
            "chan": 9,
            "dur": 4,
            "note": 51,
            "part": "drum",
            "vel": 80
        },
        {
            "chan": 9,
            "dur": 4,
            "note": 36,
            "part": "drum",
            "vel": 80
        }
    ],
    "436": [
        {
            "chan": 9,
            "dur": 2,
            "note": 51,
            "part": "drum",
            "vel": 80
        }
    ],
    "438": [
        {
            "chan": 1,
            "dur": 2,
            "note": 75,
            "part": "flute",
            "vel": 80
        },
        {
            "chan": 0,
            "dur": 2,
            "note": 86,
            "part": "picc",
            "vel": 80
        },
        {
            "chan": 8,
            "dur": 2,
            "note": 38,
            "part": "bass",
            "vel": 80
        },
        {
            "chan": 9,
            "dur": 2,
            "note": 38,
            "part": "drum",
            "vel": 80
        }
    ],
    "440": [
        {
            "chan": 9,
            "dur": 4,
            "note": 46,
            "part": "drum",
            "vel": 80
        },
        {
            "chan": 9,
            "dur": 4,
            "note": 51,
            "part": "drum",
            "vel": 80
        }
    ],
    "444": [
        {
            "chan": 1,
            "dur": 2,
            "note": 74,
            "part": "flute",
            "vel": 80
        },
        {
            "chan": 0,
            "dur": 2,
            "note": 86,
            "part": "picc",
            "vel": 80
        },
        {
            "chan": 8,
            "dur": 2,
            "note": 38,
            "part": "bass",
            "vel": 80
        },
        {
            "chan": 9,
            "dur": 4,
            "note": 51,
            "part": "drum",
            "vel": 80
        }
    ],
    "448": [
        {
            "chan": 9,
            "dur": 2,
            "note": 36,
            "part": "drum",
            "vel": 80
        },
        {
            "chan": 9,
            "dur": 4,
            "note": 51,
            "part": "drum",
            "vel": 80
        }
    ],
    "450": [
        {
            "chan": 1,
            "dur": 2,
            "note": 79,
            "part": "flute",
            "vel": 80
        },
        {
            "chan": 0,
            "dur": 2,
            "note": 86,
            "part": "picc",
            "vel": 80
        },
        {
            "chan": 8,
            "dur": 2,
            "note": 38,
            "part": "bass",
            "vel": 80
        },
        {
            "chan": 9,
            "dur": 2,
            "note": 44,
            "part": "drum",
            "vel": 80
        },
        {
            "chan": 9,
            "dur": 2,
            "note": 35,
            "part": "drum",
            "vel": 80
        }
    ],
    "452": [
        {
            "chan": 9,
            "dur": 4,
            "note": 51,
            "part": "drum",
            "vel": 80
        }
    ],
    "454": [
        {
            "chan": 9,
            "dur": 2,
            "note": 35,
            "part": "drum",
            "vel": 80
        }
    ],
    "456": [
        {
            "chan": 1,
            "dur": 2,
            "note": 81,
            "part": "flute",
            "vel": 80
        },
        {
            "chan": 0,
            "dur": 2,
            "note": 86,
            "part": "picc",
            "vel": 80
        },
        {
            "chan": 8,
            "dur": 2,
            "note": 45,
            "part": "bass",
            "vel": 80
        },
        {
            "chan": 9,
            "dur": 4,
            "note": 38,
            "part": "drum",
            "vel": 80
        },
        {
            "chan": 9,
            "dur": 4,
            "note": 51,
            "part": "drum",
            "vel": 80
        }
    ],
    "458": [
        {
            "chan": 1,
            "dur": 2,
            "note": 79,
            "part": "flute",
            "vel": 80
        },
        {
            "chan": 0,
            "dur": 2,
            "note": 82,
            "part": "picc",
            "vel": 80
        },
        {
            "chan": 8,
            "dur": 2,
            "note": 43,
            "part": "bass",
            "vel": 80
        }
    ],
    "460": [
        {
            "chan": 1,
            "dur": 2,
            "note": 81,
            "part": "flute",
            "vel": 80
        },
        {
            "chan": 0,
            "dur": 2,
            "note": 81,
            "part": "picc",
            "vel": 80
        },
        {
            "chan": 8,
            "dur": 2,
            "note": 38,
            "part": "bass",
            "vel": 80
        },
        {
            "chan": 9,
            "dur": 2,
            "note": 42,
            "part": "drum",
            "vel": 80
        }
    ],
    "462": [
        {
            "chan": 1,
            "dur": 2,
            "note": 86,
            "part": "flute",
            "vel": 80
        },
        {
            "chan": 0,
            "dur": 2,
            "note": 74,
            "part": "picc",
            "vel": 80
        },
        {
            "chan": 8,
            "dur": 2,
            "note": 34,
            "part": "bass",
            "vel": 80
        },
        {
            "chan": 9,
            "dur": 2,
            "note": 42,
            "part": "drum",
            "vel": 80
        }
    ],
    "464": [
        {
            "chan": 1,
            "dur": 2,
            "note": 75,
            "part": "flute",
            "vel": 80
        },
        {
            "chan": 0,
            "dur": 2,
            "note": 87,
            "part": "picc",
            "vel": 80
        },
        {
            "chan": 8,
            "dur": 2,
            "note": 39,
            "part": "bass",
            "vel": 80
        },
        {
            "chan": 9,
            "dur": 4,
            "note": 46,
            "part": "drum",
            "vel": 80
        },
        {
            "chan": 9,
            "dur": 4,
            "note": 51,
            "part": "drum",
            "vel": 80
        },
        {
            "chan": 9,
            "dur": 4,
            "note": 36,
            "part": "drum",
            "vel": 80
        }
    ],
    "468": [
        {
            "chan": 9,
            "dur": 2,
            "note": 51,
            "part": "drum",
            "vel": 80
        }
    ],
    "470": [
        {
            "chan": 1,
            "dur": 2,
            "note": 77,
            "part": "flute",
            "vel": 80
        },
        {
            "chan": 0,
            "dur": 2,
            "note": 87,
            "part": "picc",
            "vel": 80
        },
        {
            "chan": 8,
            "dur": 2,
            "note": 39,
            "part": "bass",
            "vel": 80
        },
        {
            "chan": 9,
            "dur": 2,
            "note": 38,
            "part": "drum",
            "vel": 80
        }
    ],
    "472": [
        {
            "chan": 9,
            "dur": 4,
            "note": 46,
            "part": "drum",
            "vel": 80
        },
        {
            "chan": 9,
            "dur": 4,
            "note": 51,
            "part": "drum",
            "vel": 80
        }
    ],
    "476": [
        {
            "chan": 9,
            "dur": 4,
            "note": 51,
            "part": "drum",
            "vel": 80
        }
    ],
    "478": [
        {
            "chan": 1,
            "dur": 2,
            "note": 79,
            "part": "flute",
            "vel": 80
        },
        {
            "chan": 0,
            "dur": 2,
            "note": 87,
            "part": "picc",
            "vel": 80
        },
        {
            "chan": 8,
            "dur": 2,
            "note": 39,
            "part": "bass",
            "vel": 80
        }
    ],
    "480": [
        {
            "chan": 1,
            "dur": 2,
            "note": 81,
            "part": "flute",
            "vel": 80
        },
        {
            "chan": 0,
            "dur": 2,
            "note": 87,
            "part": "picc",
            "vel": 80
        },
        {
            "chan": 8,
            "dur": 2,
            "note": 39,
            "part": "bass",
            "vel": 80
        },
        {
            "chan": 9,
            "dur": 2,
            "note": 36,
            "part": "drum",
            "vel": 80
        },
        {
            "chan": 9,
            "dur": 4,
            "note": 51,
            "part": "drum",
            "vel": 80
        }
    ],
    "482": [
        {
            "chan": 9,
            "dur": 2,
            "note": 44,
            "part": "drum",
            "vel": 80
        },
        {
            "chan": 9,
            "dur": 2,
            "note": 35,
            "part": "drum",
            "vel": 80
        }
    ],
    "484": [
        {
            "chan": 9,
            "dur": 4,
            "note": 51,
            "part": "drum",
            "vel": 80
        }
    ],
    "486": [
        {
            "chan": 9,
            "dur": 2,
            "note": 35,
            "part": "drum",
            "vel": 80
        }
    ],
    "488": [
        {
            "chan": 1,
            "dur": 2,
            "note": 82,
            "part": "flute",
            "vel": 80
        },
        {
            "chan": 8,
            "dur": 4,
            "note": 38,
            "part": "bass",
            "vel": 80
        },
        {
            "chan": 9,
            "dur": 4,
            "note": 38,
            "part": "drum",
            "vel": 80
        },
        {
            "chan": 9,
            "dur": 4,
            "note": 51,
            "part": "drum",
            "vel": 80
        }
    ],
    "490": [
        {
            "chan": 1,
            "dur": 2,
            "note": 81,
            "part": "flute",
            "vel": 80
        }
    ],
    "492": [
        {
            "chan": 1,
            "dur": 2,
            "note": 82,
            "part": "flute",
            "vel": 80
        },
        {
            "chan": 9,
            "dur": 2,
            "note": 42,
            "part": "drum",
            "vel": 80
        },
        {
            "chan": 8,
            "dur": 4,
            "note": 34,
            "part": "bass",
            "vel": 80
        }
    ],
    "494": [
        {
            "chan": 1,
            "dur": 2,
            "note": 86,
            "part": "flute",
            "vel": 80
        },
        {
            "chan": 9,
            "dur": 2,
            "note": 42,
            "part": "drum",
            "vel": 80
        }
    ],
    "496": [
        {
            "chan": 1,
            "dur": 2,
            "note": 67,
            "part": "flute",
            "vel": 80
        },
        {
            "chan": 9,
            "dur": 4,
            "note": 51,
            "part": "drum",
            "vel": 80
        },
        {
            "chan": 9,
            "dur": 4,
            "note": 36,
            "part": "drum",
            "vel": 80
        },
        {
            "chan": 8,
            "dur": 8,
            "note": 31,
            "part": "bass",
            "vel": 80
        }
    ],
    "498": [
        {
            "chan": 1,
            "dur": 2,
            "note": 69,
            "part": "flute",
            "vel": 80
        }
    ],
    "500": [
        {
            "chan": 1,
            "dur": 2,
            "note": 67,
            "part": "flute",
            "vel": 80
        },
        {
            "chan": 9,
            "dur": 2,
            "note": 51,
            "part": "drum",
            "vel": 80
        }
    ],
    "502": [
        {
            "chan": 9,
            "dur": 2,
            "note": 38,
            "part": "drum",
            "vel": 80
        },
        {
            "chan": 1,
            "dur": 25,
            "note": 74,
            "part": "flute",
            "vel": 80
        }
    ],
    "504": [
        {
            "chan": 0,
            "dur": 2,
            "note": 75,
            "part": "picc",
            "vel": 80
        },
        {
            "chan": 9,
            "dur": 4,
            "note": 51,
            "part": "drum",
            "vel": 80
        },
        {
            "chan": 8,
            "dur": 8,
            "note": 33,
            "part": "bass",
            "vel": 80
        }
    ],
    "506": [
        {
            "chan": 0,
            "dur": 2,
            "note": 74,
            "part": "picc",
            "vel": 80
        }
    ],
    "508": [
        {
            "chan": 0,
            "dur": 2,
            "note": 75,
            "part": "picc",
            "vel": 80
        },
        {
            "chan": 9,
            "dur": 4,
            "note": 38,
            "part": "drum",
            "vel": 80
        },
        {
            "chan": 9,
            "dur": 4,
            "note": 51,
            "part": "drum",
            "vel": 80
        }
    ],
    "510": [
        {
            "chan": 0,
            "dur": 18,
            "note": 79,
            "part": "picc",
            "vel": 80
        }
    ],
    "512": [
        {
            "chan": 2,
            "dur": 2,
            "note": 70,
            "part": "guit",
            "vel": 80
        },
        {
            "chan": 9,
            "dur": 2,
            "note": 51,
            "part": "drum",
            "vel": 80
        },
        {
            "chan": 8,
            "dur": 10,
            "note": 34,
            "part": "bass",
            "vel": 80
        }
    ],
    "514": [
        {
            "chan": 2,
            "dur": 2,
            "note": 69,
            "part": "guit",
            "vel": 80
        },
        {
            "chan": 9,
            "dur": 2,
            "note": 38,
            "part": "drum",
            "vel": 80
        },
        {
            "chan": 9,
            "dur": 2,
            "note": 44,
            "part": "drum",
            "vel": 80
        },
        {
            "chan": 9,
            "dur": 2,
            "note": 35,
            "part": "drum",
            "vel": 80
        }
    ],
    "516": [
        {
            "chan": 2,
            "dur": 2,
            "note": 70,
            "part": "guit",
            "vel": 80
        },
        {
            "chan": 9,
            "dur": 4,
            "note": 51,
            "part": "drum",
            "vel": 80
        }
    ],
    "518": [
        {
            "chan": 9,
            "dur": 2,
            "note": 35,
            "part": "drum",
            "vel": 80
        },
        {
            "chan": 2,
            "dur": 10,
            "note": 74,
            "part": "guit",
            "vel": 80
        }
    ],
    "520": [
        {
            "chan": 9,
            "dur": 2,
            "note": 51,
            "part": "drum",
            "vel": 80
        }
    ],
    "522": [
        {
            "chan": 8,
            "dur": 2,
            "note": 45,
            "part": "bass",
            "vel": 80
        },
        {
            "chan": 9,
            "dur": 2,
            "note": 46,
            "part": "drum",
            "vel": 80
        }
    ],
    "524": [
        {
            "chan": 8,
            "dur": 2,
            "note": 43,
            "part": "bass",
            "vel": 80
        },
        {
            "chan": 9,
            "dur": 2,
            "note": 46,
            "part": "drum",
            "vel": 80
        }
    ],
    "526": [
        {
            "chan": 8,
            "dur": 2,
            "note": 38,
            "part": "bass",
            "vel": 80
        },
        {
            "chan": 9,
            "dur": 2,
            "note": 46,
            "part": "drum",
            "vel": 80
        }
    ],
    "528": [
        {
            "chan": 1,
            "dur": 2,
            "note": 75,
            "part": "flute",
            "vel": 80
        },
        {
            "chan": 0,
            "dur": 2,
            "note": 87,
            "part": "picc",
            "vel": 80
        },
        {
            "chan": 2,
            "dur": 2,
            "note": 51,
            "part": "guit",
            "vel": 120
        },
        {
            "chan": 8,
            "dur": 2,
            "note": 39,
            "part": "bass",
            "vel": 80
        },
        {
            "chan": 9,
            "dur": 4,
            "note": 51,
            "part": "drum",
            "vel": 80
        },
        {
            "chan": 9,
            "dur": 4,
            "note": 44,
            "part": "drum",
            "vel": 80
        },
        {
            "chan": 9,
            "dur": 4,
            "note": 36,
            "part": "drum",
            "vel": 80
        }
    ],
    "530": [
        {
            "chan": 2,
            "dur": 2,
            "note": 51,
            "part": "guit",
            "vel": 80
        }
    ],
    "532": [
        {
            "chan": 2,
            "dur": 2,
            "note": 51,
            "part": "guit",
            "vel": 80
        },
        {
            "chan": 9,
            "dur": 2,
            "note": 51,
            "part": "drum",
            "vel": 80
        }
    ],
    "534": [
        {
            "chan": 1,
            "dur": 2,
            "note": 77,
            "part": "flute",
            "vel": 80
        },
        {
            "chan": 0,
            "dur": 2,
            "note": 87,
            "part": "picc",
            "vel": 80
        },
        {
            "chan": 2,
            "dur": 2,
            "note": 51,
            "part": "guit",
            "vel": 120
        },
        {
            "chan": 8,
            "dur": 2,
            "note": 39,
            "part": "bass",
            "vel": 80
        },
        {
            "chan": 9,
            "dur": 2,
            "note": 38,
            "part": "drum",
            "vel": 80
        }
    ],
    "536": [
        {
            "chan": 2,
            "dur": 2,
            "note": 51,
            "part": "guit",
            "vel": 80
        },
        {
            "chan": 9,
            "dur": 4,
            "note": 46,
            "part": "drum",
            "vel": 80
        },
        {
            "chan": 9,
            "dur": 4,
            "note": 51,
            "part": "drum",
            "vel": 80
        }
    ],
    "538": [
        {
            "chan": 2,
            "dur": 2,
            "note": 51,
            "part": "guit",
            "vel": 80
        }
    ],
    "540": [
        {
            "chan": 2,
            "dur": 2,
            "note": 51,
            "part": "guit",
            "vel": 80
        },
        {
            "chan": 9,
            "dur": 4,
            "note": 51,
            "part": "drum",
            "vel": 80
        }
    ],
    "542": [
        {
            "chan": 1,
            "dur": 2,
            "note": 79,
            "part": "flute",
            "vel": 80
        },
        {
            "chan": 0,
            "dur": 2,
            "note": 87,
            "part": "picc",
            "vel": 80
        },
        {
            "chan": 2,
            "dur": 2,
            "note": 51,
            "part": "guit",
            "vel": 120
        },
        {
            "chan": 8,
            "dur": 2,
            "note": 39,
            "part": "bass",
            "vel": 80
        }
    ],
    "544": [
        {
            "chan": 1,
            "dur": 2,
            "note": 81,
            "part": "flute",
            "vel": 80
        },
        {
            "chan": 0,
            "dur": 2,
            "note": 87,
            "part": "picc",
            "vel": 80
        },
        {
            "chan": 2,
            "dur": 2,
            "note": 51,
            "part": "guit",
            "vel": 120
        },
        {
            "chan": 8,
            "dur": 2,
            "note": 39,
            "part": "bass",
            "vel": 80
        },
        {
            "chan": 9,
            "dur": 2,
            "note": 36,
            "part": "drum",
            "vel": 80
        },
        {
            "chan": 9,
            "dur": 4,
            "note": 51,
            "part": "drum",
            "vel": 80
        }
    ],
    "546": [
        {
            "chan": 2,
            "dur": 2,
            "note": 51,
            "part": "guit",
            "vel": 80
        },
        {
            "chan": 9,
            "dur": 2,
            "note": 44,
            "part": "drum",
            "vel": 80
        },
        {
            "chan": 9,
            "dur": 2,
            "note": 35,
            "part": "drum",
            "vel": 80
        }
    ],
    "548": [
        {
            "chan": 2,
            "dur": 2,
            "note": 51,
            "part": "guit",
            "vel": 80
        },
        {
            "chan": 9,
            "dur": 4,
            "note": 51,
            "part": "drum",
            "vel": 80
        }
    ],
    "550": [
        {
            "chan": 2,
            "dur": 2,
            "note": 51,
            "part": "guit",
            "vel": 80
        },
        {
            "chan": 9,
            "dur": 2,
            "note": 35,
            "part": "drum",
            "vel": 80
        }
    ],
    "552": [
        {
            "chan": 1,
            "dur": 2,
            "note": 82,
            "part": "flute",
            "vel": 80
        },
        {
            "chan": 2,
            "dur": 2,
            "note": 55,
            "part": "guit",
            "vel": 80
        },
        {
            "chan": 9,
            "dur": 4,
            "note": 38,
            "part": "drum",
            "vel": 80
        },
        {
            "chan": 9,
            "dur": 4,
            "note": 51,
            "part": "drum",
            "vel": 80
        }
    ],
    "554": [
        {
            "chan": 1,
            "dur": 2,
            "note": 81,
            "part": "flute",
            "vel": 80
        },
        {
            "chan": 2,
            "dur": 2,
            "note": 55,
            "part": "guit",
            "vel": 80
        }
    ],
    "556": [
        {
            "chan": 1,
            "dur": 2,
            "note": 82,
            "part": "flute",
            "vel": 80
        },
        {
            "chan": 2,
            "dur": 2,
            "note": 51,
            "part": "guit",
            "vel": 80
        },
        {
            "chan": 9,
            "dur": 2,
            "note": 42,
            "part": "drum",
            "vel": 80
        }
    ],
    "558": [
        {
            "chan": 1,
            "dur": 2,
            "note": 86,
            "part": "flute",
            "vel": 80
        },
        {
            "chan": 2,
            "dur": 2,
            "note": 51,
            "part": "guit",
            "vel": 80
        },
        {
            "chan": 9,
            "dur": 2,
            "note": 42,
            "part": "drum",
            "vel": 80
        }
    ],
    "560": [
        {
            "chan": 1,
            "dur": 2,
            "note": 74,
            "part": "flute",
            "vel": 80
        },
        {
            "chan": 0,
            "dur": 2,
            "note": 86,
            "part": "picc",
            "vel": 80
        },
        {
            "chan": 2,
            "dur": 2,
            "note": 50,
            "part": "guit",
            "vel": 120
        },
        {
            "chan": 8,
            "dur": 2,
            "note": 38,
            "part": "bass",
            "vel": 80
        },
        {
            "chan": 9,
            "dur": 4,
            "note": 46,
            "part": "drum",
            "vel": 80
        },
        {
            "chan": 9,
            "dur": 4,
            "note": 51,
            "part": "drum",
            "vel": 80
        },
        {
            "chan": 9,
            "dur": 4,
            "note": 36,
            "part": "drum",
            "vel": 80
        }
    ],
    "562": [
        {
            "chan": 2,
            "dur": 2,
            "note": 50,
            "part": "guit",
            "vel": 80
        }
    ],
    "564": [
        {
            "chan": 2,
            "dur": 2,
            "note": 50,
            "part": "guit",
            "vel": 80
        },
        {
            "chan": 9,
            "dur": 2,
            "note": 51,
            "part": "drum",
            "vel": 80
        }
    ],
    "566": [
        {
            "chan": 1,
            "dur": 2,
            "note": 75,
            "part": "flute",
            "vel": 80
        },
        {
            "chan": 0,
            "dur": 2,
            "note": 86,
            "part": "picc",
            "vel": 80
        },
        {
            "chan": 2,
            "dur": 2,
            "note": 50,
            "part": "guit",
            "vel": 120
        },
        {
            "chan": 8,
            "dur": 2,
            "note": 38,
            "part": "bass",
            "vel": 80
        },
        {
            "chan": 9,
            "dur": 2,
            "note": 38,
            "part": "drum",
            "vel": 80
        }
    ],
    "568": [
        {
            "chan": 2,
            "dur": 2,
            "note": 50,
            "part": "guit",
            "vel": 80
        },
        {
            "chan": 9,
            "dur": 4,
            "note": 46,
            "part": "drum",
            "vel": 80
        },
        {
            "chan": 9,
            "dur": 4,
            "note": 51,
            "part": "drum",
            "vel": 80
        }
    ],
    "570": [
        {
            "chan": 2,
            "dur": 2,
            "note": 50,
            "part": "guit",
            "vel": 80
        }
    ],
    "572": [
        {
            "chan": 1,
            "dur": 2,
            "note": 74,
            "part": "flute",
            "vel": 80
        },
        {
            "chan": 0,
            "dur": 2,
            "note": 86,
            "part": "picc",
            "vel": 80
        },
        {
            "chan": 2,
            "dur": 2,
            "note": 50,
            "part": "guit",
            "vel": 120
        },
        {
            "chan": 8,
            "dur": 2,
            "note": 38,
            "part": "bass",
            "vel": 80
        },
        {
            "chan": 9,
            "dur": 4,
            "note": 51,
            "part": "drum",
            "vel": 80
        }
    ],
    "574": [
        {
            "chan": 2,
            "dur": 2,
            "note": 50,
            "part": "guit",
            "vel": 80
        }
    ],
    "576": [
        {
            "chan": 2,
            "dur": 2,
            "note": 50,
            "part": "guit",
            "vel": 80
        },
        {
            "chan": 9,
            "dur": 2,
            "note": 36,
            "part": "drum",
            "vel": 80
        },
        {
            "chan": 9,
            "dur": 4,
            "note": 51,
            "part": "drum",
            "vel": 80
        }
    ],
    "578": [
        {
            "chan": 1,
            "dur": 2,
            "note": 79,
            "part": "flute",
            "vel": 80
        },
        {
            "chan": 0,
            "dur": 2,
            "note": 86,
            "part": "picc",
            "vel": 80
        },
        {
            "chan": 2,
            "dur": 2,
            "note": 50,
            "part": "guit",
            "vel": 120
        },
        {
            "chan": 8,
            "dur": 2,
            "note": 38,
            "part": "bass",
            "vel": 80
        },
        {
            "chan": 9,
            "dur": 2,
            "note": 44,
            "part": "drum",
            "vel": 80
        },
        {
            "chan": 9,
            "dur": 2,
            "note": 35,
            "part": "drum",
            "vel": 80
        }
    ],
    "580": [
        {
            "chan": 2,
            "dur": 2,
            "note": 50,
            "part": "guit",
            "vel": 80
        },
        {
            "chan": 9,
            "dur": 4,
            "note": 51,
            "part": "drum",
            "vel": 80
        }
    ],
    "582": [
        {
            "chan": 2,
            "dur": 2,
            "note": 50,
            "part": "guit",
            "vel": 80
        },
        {
            "chan": 9,
            "dur": 2,
            "note": 35,
            "part": "drum",
            "vel": 80
        }
    ],
    "584": [
        {
            "chan": 1,
            "dur": 2,
            "note": 81,
            "part": "flute",
            "vel": 80
        },
        {
            "chan": 0,
            "dur": 2,
            "note": 86,
            "part": "picc",
            "vel": 80
        },
        {
            "chan": 2,
            "dur": 2,
            "note": 50,
            "part": "guit",
            "vel": 80
        },
        {
            "chan": 8,
            "dur": 2,
            "note": 45,
            "part": "bass",
            "vel": 80
        },
        {
            "chan": 9,
            "dur": 4,
            "note": 38,
            "part": "drum",
            "vel": 80
        },
        {
            "chan": 9,
            "dur": 4,
            "note": 51,
            "part": "drum",
            "vel": 80
        }
    ],
    "586": [
        {
            "chan": 1,
            "dur": 2,
            "note": 79,
            "part": "flute",
            "vel": 80
        },
        {
            "chan": 0,
            "dur": 2,
            "note": 82,
            "part": "picc",
            "vel": 80
        },
        {
            "chan": 2,
            "dur": 2,
            "note": 50,
            "part": "guit",
            "vel": 80
        },
        {
            "chan": 8,
            "dur": 2,
            "note": 43,
            "part": "bass",
            "vel": 80
        }
    ],
    "588": [
        {
            "chan": 1,
            "dur": 2,
            "note": 81,
            "part": "flute",
            "vel": 80
        },
        {
            "chan": 0,
            "dur": 2,
            "note": 81,
            "part": "picc",
            "vel": 80
        },
        {
            "chan": 2,
            "dur": 2,
            "note": 50,
            "part": "guit",
            "vel": 80
        },
        {
            "chan": 8,
            "dur": 2,
            "note": 38,
            "part": "bass",
            "vel": 80
        },
        {
            "chan": 9,
            "dur": 2,
            "note": 42,
            "part": "drum",
            "vel": 80
        }
    ],
    "590": [
        {
            "chan": 1,
            "dur": 2,
            "note": 86,
            "part": "flute",
            "vel": 80
        },
        {
            "chan": 0,
            "dur": 2,
            "note": 74,
            "part": "picc",
            "vel": 80
        },
        {
            "chan": 2,
            "dur": 2,
            "note": 46,
            "part": "guit",
            "vel": 80
        },
        {
            "chan": 8,
            "dur": 2,
            "note": 34,
            "part": "bass",
            "vel": 80
        },
        {
            "chan": 9,
            "dur": 2,
            "note": 42,
            "part": "drum",
            "vel": 80
        }
    ],
    "592": [
        {
            "chan": 1,
            "dur": 2,
            "note": 75,
            "part": "flute",
            "vel": 80
        },
        {
            "chan": 0,
            "dur": 2,
            "note": 87,
            "part": "picc",
            "vel": 80
        },
        {
            "chan": 2,
            "dur": 2,
            "note": 51,
            "part": "guit",
            "vel": 120
        },
        {
            "chan": 8,
            "dur": 2,
            "note": 39,
            "part": "bass",
            "vel": 80
        },
        {
            "chan": 9,
            "dur": 4,
            "note": 46,
            "part": "drum",
            "vel": 80
        },
        {
            "chan": 9,
            "dur": 4,
            "note": 51,
            "part": "drum",
            "vel": 80
        },
        {
            "chan": 9,
            "dur": 4,
            "note": 36,
            "part": "drum",
            "vel": 80
        }
    ],
    "594": [
        {
            "chan": 2,
            "dur": 2,
            "note": 51,
            "part": "guit",
            "vel": 80
        }
    ],
    "596": [
        {
            "chan": 2,
            "dur": 2,
            "note": 51,
            "part": "guit",
            "vel": 80
        },
        {
            "chan": 9,
            "dur": 2,
            "note": 51,
            "part": "drum",
            "vel": 80
        }
    ],
    "598": [
        {
            "chan": 1,
            "dur": 2,
            "note": 77,
            "part": "flute",
            "vel": 80
        },
        {
            "chan": 0,
            "dur": 2,
            "note": 87,
            "part": "picc",
            "vel": 80
        },
        {
            "chan": 2,
            "dur": 2,
            "note": 51,
            "part": "guit",
            "vel": 120
        },
        {
            "chan": 8,
            "dur": 2,
            "note": 39,
            "part": "bass",
            "vel": 80
        },
        {
            "chan": 9,
            "dur": 2,
            "note": 38,
            "part": "drum",
            "vel": 80
        }
    ],
    "600": [
        {
            "chan": 2,
            "dur": 2,
            "note": 51,
            "part": "guit",
            "vel": 80
        },
        {
            "chan": 9,
            "dur": 4,
            "note": 46,
            "part": "drum",
            "vel": 80
        },
        {
            "chan": 9,
            "dur": 4,
            "note": 51,
            "part": "drum",
            "vel": 80
        }
    ],
    "602": [
        {
            "chan": 2,
            "dur": 2,
            "note": 51,
            "part": "guit",
            "vel": 80
        }
    ],
    "604": [
        {
            "chan": 2,
            "dur": 2,
            "note": 51,
            "part": "guit",
            "vel": 80
        },
        {
            "chan": 9,
            "dur": 4,
            "note": 51,
            "part": "drum",
            "vel": 80
        }
    ],
    "606": [
        {
            "chan": 1,
            "dur": 2,
            "note": 79,
            "part": "flute",
            "vel": 80
        },
        {
            "chan": 0,
            "dur": 2,
            "note": 87,
            "part": "picc",
            "vel": 80
        },
        {
            "chan": 2,
            "dur": 2,
            "note": 51,
            "part": "guit",
            "vel": 120
        },
        {
            "chan": 8,
            "dur": 2,
            "note": 39,
            "part": "bass",
            "vel": 80
        }
    ],
    "608": [
        {
            "chan": 1,
            "dur": 2,
            "note": 81,
            "part": "flute",
            "vel": 80
        },
        {
            "chan": 0,
            "dur": 2,
            "note": 87,
            "part": "picc",
            "vel": 80
        },
        {
            "chan": 2,
            "dur": 2,
            "note": 51,
            "part": "guit",
            "vel": 120
        },
        {
            "chan": 8,
            "dur": 2,
            "note": 39,
            "part": "bass",
            "vel": 80
        },
        {
            "chan": 9,
            "dur": 2,
            "note": 36,
            "part": "drum",
            "vel": 80
        },
        {
            "chan": 9,
            "dur": 4,
            "note": 51,
            "part": "drum",
            "vel": 80
        }
    ],
    "610": [
        {
            "chan": 2,
            "dur": 2,
            "note": 51,
            "part": "guit",
            "vel": 80
        },
        {
            "chan": 9,
            "dur": 2,
            "note": 44,
            "part": "drum",
            "vel": 80
        },
        {
            "chan": 9,
            "dur": 2,
            "note": 35,
            "part": "drum",
            "vel": 80
        }
    ],
    "612": [
        {
            "chan": 2,
            "dur": 2,
            "note": 51,
            "part": "guit",
            "vel": 80
        },
        {
            "chan": 9,
            "dur": 4,
            "note": 51,
            "part": "drum",
            "vel": 80
        }
    ],
    "614": [
        {
            "chan": 2,
            "dur": 2,
            "note": 51,
            "part": "guit",
            "vel": 80
        },
        {
            "chan": 9,
            "dur": 2,
            "note": 35,
            "part": "drum",
            "vel": 80
        }
    ],
    "616": [
        {
            "chan": 1,
            "dur": 2,
            "note": 82,
            "part": "flute",
            "vel": 80
        },
        {
            "chan": 2,
            "dur": 2,
            "note": 55,
            "part": "guit",
            "vel": 80
        },
        {
            "chan": 8,
            "dur": 4,
            "note": 38,
            "part": "bass",
            "vel": 80
        },
        {
            "chan": 9,
            "dur": 4,
            "note": 38,
            "part": "drum",
            "vel": 80
        },
        {
            "chan": 9,
            "dur": 4,
            "note": 51,
            "part": "drum",
            "vel": 80
        }
    ],
    "618": [
        {
            "chan": 1,
            "dur": 2,
            "note": 81,
            "part": "flute",
            "vel": 80
        },
        {
            "chan": 2,
            "dur": 2,
            "note": 55,
            "part": "guit",
            "vel": 80
        }
    ],
    "620": [
        {
            "chan": 1,
            "dur": 2,
            "note": 82,
            "part": "flute",
            "vel": 80
        },
        {
            "chan": 2,
            "dur": 2,
            "note": 51,
            "part": "guit",
            "vel": 80
        },
        {
            "chan": 9,
            "dur": 2,
            "note": 42,
            "part": "drum",
            "vel": 80
        },
        {
            "chan": 8,
            "dur": 4,
            "note": 34,
            "part": "bass",
            "vel": 80
        }
    ],
    "622": [
        {
            "chan": 1,
            "dur": 2,
            "note": 86,
            "part": "flute",
            "vel": 80
        },
        {
            "chan": 2,
            "dur": 2,
            "note": 51,
            "part": "guit",
            "vel": 80
        },
        {
            "chan": 9,
            "dur": 2,
            "note": 42,
            "part": "drum",
            "vel": 80
        }
    ],
    "624": [
        {
            "chan": 1,
            "dur": 2,
            "note": 67,
            "part": "flute",
            "vel": 80
        },
        {
            "chan": 9,
            "dur": 4,
            "note": 51,
            "part": "drum",
            "vel": 80
        },
        {
            "chan": 9,
            "dur": 4,
            "note": 36,
            "part": "drum",
            "vel": 80
        },
        {
            "chan": 8,
            "dur": 8,
            "note": 31,
            "part": "bass",
            "vel": 80
        },
        {
            "chan": 2,
            "dur": 16,
            "note": 50,
            "part": "guit",
            "vel": 80
        },
        {
            "chan": 2,
            "dur": 16,
            "note": 51,
            "part": "guit",
            "vel": 80
        },
        {
            "chan": 2,
            "dur": 16,
            "note": 55,
            "part": "guit",
            "vel": 80
        },
        {
            "chan": 2,
            "dur": 16,
            "note": 58,
            "part": "guit",
            "vel": 80
        },
        {
            "chan": 2,
            "dur": 16,
            "note": 67,
            "part": "guit",
            "vel": 80
        }
    ],
    "626": [
        {
            "chan": 1,
            "dur": 2,
            "note": 69,
            "part": "flute",
            "vel": 80
        }
    ],
    "628": [
        {
            "chan": 1,
            "dur": 2,
            "note": 67,
            "part": "flute",
            "vel": 80
        },
        {
            "chan": 9,
            "dur": 2,
            "note": 51,
            "part": "drum",
            "vel": 80
        }
    ],
    "630": [
        {
            "chan": 9,
            "dur": 2,
            "note": 38,
            "part": "drum",
            "vel": 80
        },
        {
            "chan": 1,
            "dur": 25,
            "note": 74,
            "part": "flute",
            "vel": 80
        }
    ],
    "632": [
        {
            "chan": 0,
            "dur": 2,
            "note": 75,
            "part": "picc",
            "vel": 80
        },
        {
            "chan": 9,
            "dur": 4,
            "note": 51,
            "part": "drum",
            "vel": 80
        },
        {
            "chan": 8,
            "dur": 8,
            "note": 33,
            "part": "bass",
            "vel": 80
        }
    ],
    "634": [
        {
            "chan": 0,
            "dur": 2,
            "note": 74,
            "part": "picc",
            "vel": 80
        }
    ],
    "636": [
        {
            "chan": 0,
            "dur": 2,
            "note": 75,
            "part": "picc",
            "vel": 80
        },
        {
            "chan": 9,
            "dur": 4,
            "note": 38,
            "part": "drum",
            "vel": 80
        },
        {
            "chan": 9,
            "dur": 4,
            "note": 51,
            "part": "drum",
            "vel": 80
        }
    ],
    "638": [
        {
            "chan": 0,
            "dur": 18,
            "note": 79,
            "part": "picc",
            "vel": 80
        }
    ],
    "640": [
        {
            "chan": 2,
            "dur": 2,
            "note": 70,
            "part": "guit",
            "vel": 80
        },
        {
            "chan": 9,
            "dur": 2,
            "note": 51,
            "part": "drum",
            "vel": 80
        },
        {
            "chan": 8,
            "dur": 10,
            "note": 34,
            "part": "bass",
            "vel": 80
        }
    ],
    "642": [
        {
            "chan": 2,
            "dur": 2,
            "note": 69,
            "part": "guit",
            "vel": 80
        },
        {
            "chan": 9,
            "dur": 2,
            "note": 38,
            "part": "drum",
            "vel": 80
        },
        {
            "chan": 9,
            "dur": 2,
            "note": 44,
            "part": "drum",
            "vel": 80
        },
        {
            "chan": 9,
            "dur": 2,
            "note": 35,
            "part": "drum",
            "vel": 80
        }
    ],
    "644": [
        {
            "chan": 2,
            "dur": 2,
            "note": 70,
            "part": "guit",
            "vel": 80
        },
        {
            "chan": 9,
            "dur": 4,
            "note": 51,
            "part": "drum",
            "vel": 80
        }
    ],
    "646": [
        {
            "chan": 9,
            "dur": 2,
            "note": 35,
            "part": "drum",
            "vel": 80
        },
        {
            "chan": 2,
            "dur": 10,
            "note": 74,
            "part": "guit",
            "vel": 80
        }
    ],
    "648": [
        {
            "chan": 9,
            "dur": 2,
            "note": 51,
            "part": "drum",
            "vel": 80
        }
    ],
    "650": [
        {
            "chan": 8,
            "dur": 2,
            "note": 45,
            "part": "bass",
            "vel": 80
        },
        {
            "chan": 9,
            "dur": 2,
            "note": 46,
            "part": "drum",
            "vel": 80
        }
    ],
    "652": [
        {
            "chan": 8,
            "dur": 2,
            "note": 43,
            "part": "bass",
            "vel": 80
        },
        {
            "chan": 9,
            "dur": 2,
            "note": 46,
            "part": "drum",
            "vel": 80
        }
    ],
    "654": [
        {
            "chan": 8,
            "dur": 2,
            "note": 38,
            "part": "bass",
            "vel": 80
        },
        {
            "chan": 9,
            "dur": 2,
            "note": 46,
            "part": "drum",
            "vel": 80
        }
    ],
    "656": [
        {
            "chan": 2,
            "dur": 2,
            "note": 43,
            "part": "guit",
            "vel": 80
        },
        {
            "chan": 8,
            "dur": 2,
            "note": 31,
            "part": "bass",
            "vel": 80
        },
        {
            "chan": 9,
            "dur": 4,
            "note": 51,
            "part": "drum",
            "vel": 80
        },
        {
            "chan": 9,
            "dur": 4,
            "note": 44,
            "part": "drum",
            "vel": 80
        },
        {
            "chan": 9,
            "dur": 4,
            "note": 36,
            "part": "drum",
            "vel": 80
        }
    ],
    "658": [
        {
            "chan": 0,
            "dur": 2,
            "note": 75,
            "part": "picc",
            "vel": 80
        },
        {
            "chan": 2,
            "dur": 2,
            "note": 43,
            "part": "guit",
            "vel": 80
        }
    ],
    "660": [
        {
            "chan": 0,
            "dur": 2,
            "note": 74,
            "part": "picc",
            "vel": 80
        },
        {
            "chan": 2,
            "dur": 2,
            "note": 43,
            "part": "guit",
            "vel": 80
        },
        {
            "chan": 9,
            "dur": 4,
            "note": 51,
            "part": "drum",
            "vel": 80
        }
    ],
    "662": [
        {
            "chan": 1,
            "dur": 2,
            "note": 70,
            "part": "flute",
            "vel": 80
        },
        {
            "chan": 2,
            "dur": 2,
            "note": 43,
            "part": "guit",
            "vel": 80
        }
    ],
    "664": [
        {
            "chan": 1,
            "dur": 2,
            "note": 67,
            "part": "flute",
            "vel": 80
        },
        {
            "chan": 2,
            "dur": 2,
            "note": 43,
            "part": "guit",
            "vel": 80
        },
        {
            "chan": 2,
            "dur": 2,
            "note": 57,
            "part": "guit",
            "vel": 80
        },
        {
            "chan": 8,
            "dur": 2,
            "note": 31,
            "part": "bass",
            "vel": 80
        },
        {
            "chan": 9,
            "dur": 2,
            "note": 44,
            "part": "drum",
            "vel": 80
        },
        {
            "chan": 9,
            "dur": 2,
            "note": 35,
            "part": "drum",
            "vel": 80
        },
        {
            "chan": 9,
            "dur": 4,
            "note": 38,
            "part": "drum",
            "vel": 80
        },
        {
            "chan": 9,
            "dur": 4,
            "note": 46,
            "part": "drum",
            "vel": 80
        },
        {
            "chan": 9,
            "dur": 4,
            "note": 51,
            "part": "drum",
            "vel": 80
        }
    ],
    "666": [
        {
            "chan": 2,
            "dur": 2,
            "note": 43,
            "part": "guit",
            "vel": 80
        }
    ],
    "668": [
        {
            "chan": 0,
            "dur": 2,
            "note": 75,
            "part": "picc",
            "vel": 80
        },
        {
            "chan": 2,
            "dur": 2,
            "note": 43,
            "part": "guit",
            "vel": 80
        },
        {
            "chan": 9,
            "dur": 4,
            "note": 51,
            "part": "drum",
            "vel": 80
        }
    ],
    "670": [
        {
            "chan": 0,
            "dur": 2,
            "note": 74,
            "part": "picc",
            "vel": 80
        },
        {
            "chan": 2,
            "dur": 2,
            "note": 43,
            "part": "guit",
            "vel": 80
        }
    ],
    "672": [
        {
            "chan": 1,
            "dur": 2,
            "note": 70,
            "part": "flute",
            "vel": 80
        },
        {
            "chan": 2,
            "dur": 2,
            "note": 43,
            "part": "guit",
            "vel": 80
        },
        {
            "chan": 9,
            "dur": 2,
            "note": 36,
            "part": "drum",
            "vel": 80
        },
        {
            "chan": 9,
            "dur": 4,
            "note": 51,
            "part": "drum",
            "vel": 80
        }
    ],
    "674": [
        {
            "chan": 1,
            "dur": 2,
            "note": 67,
            "part": "flute",
            "vel": 80
        },
        {
            "chan": 2,
            "dur": 2,
            "note": 43,
            "part": "guit",
            "vel": 80
        },
        {
            "chan": 2,
            "dur": 2,
            "note": 57,
            "part": "guit",
            "vel": 80
        },
        {
            "chan": 8,
            "dur": 2,
            "note": 31,
            "part": "bass",
            "vel": 80
        },
        {
            "chan": 9,
            "dur": 2,
            "note": 44,
            "part": "drum",
            "vel": 80
        },
        {
            "chan": 9,
            "dur": 2,
            "note": 35,
            "part": "drum",
            "vel": 80
        }
    ],
    "676": [
        {
            "chan": 2,
            "dur": 2,
            "note": 43,
            "part": "guit",
            "vel": 80
        },
        {
            "chan": 9,
            "dur": 4,
            "note": 51,
            "part": "drum",
            "vel": 80
        }
    ],
    "678": [
        {
            "chan": 1,
            "dur": 2,
            "note": 67,
            "part": "flute",
            "vel": 80
        },
        {
            "chan": 2,
            "dur": 2,
            "note": 43,
            "part": "guit",
            "vel": 80
        },
        {
            "chan": 2,
            "dur": 2,
            "note": 57,
            "part": "guit",
            "vel": 80
        },
        {
            "chan": 8,
            "dur": 2,
            "note": 31,
            "part": "bass",
            "vel": 80
        },
        {
            "chan": 9,
            "dur": 2,
            "note": 35,
            "part": "drum",
            "vel": 80
        }
    ],
    "680": [
        {
            "chan": 2,
            "dur": 2,
            "note": 43,
            "part": "guit",
            "vel": 80
        },
        {
            "chan": 9,
            "dur": 4,
            "note": 38,
            "part": "drum",
            "vel": 80
        },
        {
            "chan": 9,
            "dur": 4,
            "note": 51,
            "part": "drum",
            "vel": 80
        }
    ],
    "682": [
        {
            "chan": 0,
            "dur": 2,
            "note": 75,
            "part": "picc",
            "vel": 80
        },
        {
            "chan": 2,
            "dur": 2,
            "note": 43,
            "part": "guit",
            "vel": 80
        }
    ],
    "684": [
        {
            "chan": 0,
            "dur": 2,
            "note": 74,
            "part": "picc",
            "vel": 80
        },
        {
            "chan": 2,
            "dur": 2,
            "note": 43,
            "part": "guit",
            "vel": 80
        },
        {
            "chan": 9,
            "dur": 2,
            "note": 42,
            "part": "drum",
            "vel": 80
        }
    ],
    "686": [
        {
            "chan": 1,
            "dur": 2,
            "note": 70,
            "part": "flute",
            "vel": 80
        },
        {
            "chan": 2,
            "dur": 2,
            "note": 43,
            "part": "guit",
            "vel": 80
        },
        {
            "chan": 9,
            "dur": 2,
            "note": 42,
            "part": "drum",
            "vel": 80
        }
    ],
    "688": [
        {
            "chan": 1,
            "dur": 2,
            "note": 67,
            "part": "flute",
            "vel": 80
        },
        {
            "chan": 2,
            "dur": 2,
            "note": 43,
            "part": "guit",
            "vel": 80
        },
        {
            "chan": 2,
            "dur": 2,
            "note": 57,
            "part": "guit",
            "vel": 80
        },
        {
            "chan": 9,
            "dur": 4,
            "note": 51,
            "part": "drum",
            "vel": 80
        },
        {
            "chan": 9,
            "dur": 4,
            "note": 42,
            "part": "drum",
            "vel": 80
        },
        {
            "chan": 9,
            "dur": 4,
            "note": 36,
            "part": "drum",
            "vel": 80
        },
        {
            "chan": 8,
            "dur": 8,
            "note": 31,
            "part": "bass",
            "vel": 80
        }
    ],
    "690": [
        {
            "chan": 2,
            "dur": 2,
            "note": 43,
            "part": "guit",
            "vel": 80
        }
    ],
    "692": [
        {
            "chan": 1,
            "dur": 2,
            "note": 81,
            "part": "flute",
            "vel": 80
        },
        {
            "chan": 0,
            "dur": 2,
            "note": 81,
            "part": "picc",
            "vel": 80
        },
        {
            "chan": 2,
            "dur": 2,
            "note": 43,
            "part": "guit",
            "vel": 80
        },
        {
            "chan": 9,
            "dur": 4,
            "note": 51,
            "part": "drum",
            "vel": 80
        }
    ],
    "694": [
        {
            "chan": 1,
            "dur": 2,
            "note": 79,
            "part": "flute",
            "vel": 80
        },
        {
            "chan": 2,
            "dur": 2,
            "note": 58,
            "part": "guit",
            "vel": 80
        }
    ],
    "696": [
        {
            "chan": 1,
            "dur": 2,
            "note": 75,
            "part": "flute",
            "vel": 80
        },
        {
            "chan": 0,
            "dur": 2,
            "note": 75,
            "part": "picc",
            "vel": 80
        },
        {
            "chan": 9,
            "dur": 2,
            "note": 51,
            "part": "drum",
            "vel": 80
        },
        {
            "chan": 9,
            "dur": 2,
            "note": 42,
            "part": "drum",
            "vel": 80
        },
        {
            "chan": 9,
            "dur": 2,
            "note": 35,
            "part": "drum",
            "vel": 80
        },
        {
            "chan": 8,
            "dur": 8,
            "note": 33,
            "part": "bass",
            "vel": 80
        }
    ],
    "698": [
        {
            "chan": 1,
            "dur": 2,
            "note": 77,
            "part": "flute",
            "vel": 80
        },
        {
            "chan": 2,
            "dur": 2,
            "note": 57,
            "part": "guit",
            "vel": 80
        },
        {
            "chan": 9,
            "dur": 2,
            "note": 38,
            "part": "drum",
            "vel": 80
        }
    ],
    "700": [
        {
            "chan": 1,
            "dur": 2,
            "note": 77,
            "part": "flute",
            "vel": 80
        },
        {
            "chan": 0,
            "dur": 2,
            "note": 77,
            "part": "picc",
            "vel": 80
        },
        {
            "chan": 9,
            "dur": 2,
            "note": 51,
            "part": "drum",
            "vel": 80
        }
    ],
    "702": [
        {
            "chan": 1,
            "dur": 2,
            "note": 75,
            "part": "flute",
            "vel": 80
        },
        {
            "chan": 2,
            "dur": 2,
            "note": 55,
            "part": "guit",
            "vel": 80
        },
        {
            "chan": 9,
            "dur": 2,
            "note": 38,
            "part": "drum",
            "vel": 80
        }
    ],
    "704": [
        {
            "chan": 1,
            "dur": 2,
            "note": 72,
            "part": "flute",
            "vel": 80
        },
        {
            "chan": 0,
            "dur": 2,
            "note": 84,
            "part": "picc",
            "vel": 80
        },
        {
            "chan": 9,
            "dur": 2,
            "note": 42,
            "part": "drum",
            "vel": 80
        },
        {
            "chan": 8,
            "dur": 8,
            "note": 34,
            "part": "bass",
            "vel": 80
        }
    ],
    "706": [
        {
            "chan": 1,
            "dur": 2,
            "note": 75,
            "part": "flute",
            "vel": 80
        },
        {
            "chan": 2,
            "dur": 2,
            "note": 55,
            "part": "guit",
            "vel": 80
        },
        {
            "chan": 9,
            "dur": 2,
            "note": 38,
            "part": "drum",
            "vel": 80
        },
        {
            "chan": 9,
            "dur": 2,
            "note": 51,
            "part": "drum",
            "vel": 80
        }
    ],
    "708": [
        {
            "chan": 1,
            "dur": 2,
            "note": 81,
            "part": "flute",
            "vel": 80
        },
        {
            "chan": 0,
            "dur": 2,
            "note": 81,
            "part": "picc",
            "vel": 80
        },
        {
            "chan": 9,
            "dur": 2,
            "note": 51,
            "part": "drum",
            "vel": 80
        }
    ],
    "710": [
        {
            "chan": 1,
            "dur": 2,
            "note": 79,
            "part": "flute",
            "vel": 80
        },
        {
            "chan": 2,
            "dur": 2,
            "note": 53,
            "part": "guit",
            "vel": 80
        },
        {
            "chan": 9,
            "dur": 2,
            "note": 36,
            "part": "drum",
            "vel": 80
        }
    ],
    "712": [
        {
            "chan": 1,
            "dur": 2,
            "note": 75,
            "part": "flute",
            "vel": 80
        },
        {
            "chan": 0,
            "dur": 2,
            "note": 75,
            "part": "picc",
            "vel": 80
        },
        {
            "chan": 8,
            "dur": 2,
            "note": 38,
            "part": "bass",
            "vel": 80
        },
        {
            "chan": 9,
            "dur": 2,
            "note": 42,
            "part": "drum",
            "vel": 80
        }
    ],
    "714": [
        {
            "chan": 0,
            "dur": 2,
            "note": 79,
            "part": "picc",
            "vel": 80
        },
        {
            "chan": 2,
            "dur": 2,
            "note": 51,
            "part": "guit",
            "vel": 80
        },
        {
            "chan": 9,
            "dur": 2,
            "note": 42,
            "part": "drum",
            "vel": 80
        },
        {
            "chan": 8,
            "dur": 6,
            "note": 34,
            "part": "bass",
            "vel": 80
        }
    ],
    "716": [
        {
            "chan": 0,
            "dur": 2,
            "note": 81,
            "part": "picc",
            "vel": 80
        },
        {
            "chan": 2,
            "dur": 2,
            "note": 50,
            "part": "guit",
            "vel": 80
        },
        {
            "chan": 9,
            "dur": 2,
            "note": 42,
            "part": "drum",
            "vel": 80
        }
    ],
    "718": [
        {
            "chan": 0,
            "dur": 2,
            "note": 82,
            "part": "picc",
            "vel": 80
        },
        {
            "chan": 2,
            "dur": 2,
            "note": 46,
            "part": "guit",
            "vel": 80
        },
        {
            "chan": 9,
            "dur": 2,
            "note": 42,
            "part": "drum",
            "vel": 80
        }
    ],
    "720": [
        {
            "chan": 0,
            "dur": 2,
            "note": 86,
            "part": "picc",
            "vel": 80
        },
        {
            "chan": 2,
            "dur": 2,
            "note": 43,
            "part": "guit",
            "vel": 80
        },
        {
            "chan": 8,
            "dur": 2,
            "note": 31,
            "part": "bass",
            "vel": 80
        },
        {
            "chan": 9,
            "dur": 4,
            "note": 46,
            "part": "drum",
            "vel": 80
        },
        {
            "chan": 9,
            "dur": 4,
            "note": 51,
            "part": "drum",
            "vel": 80
        },
        {
            "chan": 9,
            "dur": 4,
            "note": 36,
            "part": "drum",
            "vel": 80
        }
    ],
    "722": [
        {
            "chan": 0,
            "dur": 2,
            "note": 75,
            "part": "picc",
            "vel": 80
        },
        {
            "chan": 2,
            "dur": 2,
            "note": 43,
            "part": "guit",
            "vel": 80
        }
    ],
    "724": [
        {
            "chan": 0,
            "dur": 2,
            "note": 74,
            "part": "picc",
            "vel": 80
        },
        {
            "chan": 2,
            "dur": 2,
            "note": 43,
            "part": "guit",
            "vel": 80
        },
        {
            "chan": 9,
            "dur": 4,
            "note": 51,
            "part": "drum",
            "vel": 80
        }
    ],
    "726": [
        {
            "chan": 1,
            "dur": 2,
            "note": 70,
            "part": "flute",
            "vel": 80
        },
        {
            "chan": 2,
            "dur": 2,
            "note": 43,
            "part": "guit",
            "vel": 80
        }
    ],
    "728": [
        {
            "chan": 1,
            "dur": 2,
            "note": 67,
            "part": "flute",
            "vel": 80
        },
        {
            "chan": 2,
            "dur": 2,
            "note": 43,
            "part": "guit",
            "vel": 80
        },
        {
            "chan": 2,
            "dur": 2,
            "note": 57,
            "part": "guit",
            "vel": 80
        },
        {
            "chan": 8,
            "dur": 2,
            "note": 31,
            "part": "bass",
            "vel": 80
        },
        {
            "chan": 9,
            "dur": 2,
            "note": 44,
            "part": "drum",
            "vel": 80
        },
        {
            "chan": 9,
            "dur": 2,
            "note": 35,
            "part": "drum",
            "vel": 80
        },
        {
            "chan": 9,
            "dur": 4,
            "note": 38,
            "part": "drum",
            "vel": 80
        },
        {
            "chan": 9,
            "dur": 4,
            "note": 46,
            "part": "drum",
            "vel": 80
        },
        {
            "chan": 9,
            "dur": 4,
            "note": 51,
            "part": "drum",
            "vel": 80
        }
    ],
    "730": [
        {
            "chan": 2,
            "dur": 2,
            "note": 43,
            "part": "guit",
            "vel": 80
        }
    ],
    "732": [
        {
            "chan": 0,
            "dur": 2,
            "note": 75,
            "part": "picc",
            "vel": 80
        },
        {
            "chan": 2,
            "dur": 2,
            "note": 43,
            "part": "guit",
            "vel": 80
        },
        {
            "chan": 9,
            "dur": 4,
            "note": 51,
            "part": "drum",
            "vel": 80
        }
    ],
    "734": [
        {
            "chan": 0,
            "dur": 2,
            "note": 74,
            "part": "picc",
            "vel": 80
        },
        {
            "chan": 2,
            "dur": 2,
            "note": 43,
            "part": "guit",
            "vel": 80
        }
    ],
    "736": [
        {
            "chan": 1,
            "dur": 2,
            "note": 70,
            "part": "flute",
            "vel": 80
        },
        {
            "chan": 2,
            "dur": 2,
            "note": 43,
            "part": "guit",
            "vel": 80
        },
        {
            "chan": 9,
            "dur": 2,
            "note": 36,
            "part": "drum",
            "vel": 80
        },
        {
            "chan": 9,
            "dur": 4,
            "note": 51,
            "part": "drum",
            "vel": 80
        }
    ],
    "738": [
        {
            "chan": 1,
            "dur": 2,
            "note": 67,
            "part": "flute",
            "vel": 80
        },
        {
            "chan": 2,
            "dur": 2,
            "note": 43,
            "part": "guit",
            "vel": 80
        },
        {
            "chan": 2,
            "dur": 2,
            "note": 57,
            "part": "guit",
            "vel": 80
        },
        {
            "chan": 8,
            "dur": 2,
            "note": 31,
            "part": "bass",
            "vel": 80
        },
        {
            "chan": 9,
            "dur": 2,
            "note": 44,
            "part": "drum",
            "vel": 80
        },
        {
            "chan": 9,
            "dur": 2,
            "note": 35,
            "part": "drum",
            "vel": 80
        }
    ],
    "740": [
        {
            "chan": 2,
            "dur": 2,
            "note": 43,
            "part": "guit",
            "vel": 80
        },
        {
            "chan": 9,
            "dur": 4,
            "note": 51,
            "part": "drum",
            "vel": 80
        }
    ],
    "742": [
        {
            "chan": 1,
            "dur": 2,
            "note": 67,
            "part": "flute",
            "vel": 80
        },
        {
            "chan": 2,
            "dur": 2,
            "note": 43,
            "part": "guit",
            "vel": 80
        },
        {
            "chan": 2,
            "dur": 2,
            "note": 57,
            "part": "guit",
            "vel": 80
        },
        {
            "chan": 8,
            "dur": 2,
            "note": 31,
            "part": "bass",
            "vel": 80
        },
        {
            "chan": 9,
            "dur": 2,
            "note": 35,
            "part": "drum",
            "vel": 80
        }
    ],
    "744": [
        {
            "chan": 2,
            "dur": 2,
            "note": 43,
            "part": "guit",
            "vel": 80
        },
        {
            "chan": 9,
            "dur": 4,
            "note": 38,
            "part": "drum",
            "vel": 80
        },
        {
            "chan": 9,
            "dur": 4,
            "note": 51,
            "part": "drum",
            "vel": 80
        }
    ],
    "746": [
        {
            "chan": 0,
            "dur": 2,
            "note": 75,
            "part": "picc",
            "vel": 80
        },
        {
            "chan": 2,
            "dur": 2,
            "note": 43,
            "part": "guit",
            "vel": 80
        }
    ],
    "748": [
        {
            "chan": 0,
            "dur": 2,
            "note": 74,
            "part": "picc",
            "vel": 80
        },
        {
            "chan": 2,
            "dur": 2,
            "note": 43,
            "part": "guit",
            "vel": 80
        },
        {
            "chan": 9,
            "dur": 2,
            "note": 42,
            "part": "drum",
            "vel": 80
        }
    ],
    "750": [
        {
            "chan": 1,
            "dur": 2,
            "note": 70,
            "part": "flute",
            "vel": 80
        },
        {
            "chan": 2,
            "dur": 2,
            "note": 43,
            "part": "guit",
            "vel": 80
        },
        {
            "chan": 9,
            "dur": 2,
            "note": 42,
            "part": "drum",
            "vel": 80
        }
    ],
    "752": [
        {
            "chan": 9,
            "dur": 2,
            "note": 55,
            "part": "drum",
            "vel": 80
        },
        {
            "chan": 9,
            "dur": 2,
            "note": 36,
            "part": "drum",
            "vel": 80
        },
        {
            "chan": 1,
            "dur": 8,
            "note": 67,
            "part": "flute",
            "vel": 80
        },
        {
            "chan": 0,
            "dur": 8,
            "note": 77,
            "part": "picc",
            "vel": 80
        },
        {
            "chan": 2,
            "dur": 8,
            "note": 45,
            "part": "guit",
            "vel": 80
        },
        {
            "chan": 2,
            "dur": 8,
            "note": 57,
            "part": "guit",
            "vel": 80
        },
        {
            "chan": 2,
            "dur": 8,
            "note": 63,
            "part": "guit",
            "vel": 80
        },
        {
            "chan": 2,
            "dur": 8,
            "note": 69,
            "part": "guit",
            "vel": 80
        },
        {
            "chan": 8,
            "dur": 8,
            "note": 33,
            "part": "bass",
            "vel": 80
        }
    ],
    "758": [
        {
            "chan": 9,
            "dur": 2,
            "note": 36,
            "part": "drum",
            "vel": 80
        }
    ],
    "760": [
        {
            "chan": 9,
            "dur": 2,
            "note": 38,
            "part": "drum",
            "vel": 80
        },
        {
            "chan": 9,
            "dur": 2,
            "note": 55,
            "part": "drum",
            "vel": 80
        },
        {
            "chan": 1,
            "dur": 8,
            "note": 67,
            "part": "flute",
            "vel": 80
        },
        {
            "chan": 0,
            "dur": 8,
            "note": 75,
            "part": "picc",
            "vel": 80
        },
        {
            "chan": 2,
            "dur": 8,
            "note": 43,
            "part": "guit",
            "vel": 80
        },
        {
            "chan": 2,
            "dur": 8,
            "note": 58,
            "part": "guit",
            "vel": 80
        },
        {
            "chan": 2,
            "dur": 8,
            "note": 63,
            "part": "guit",
            "vel": 80
        },
        {
            "chan": 2,
            "dur": 8,
            "note": 67,
            "part": "guit",
            "vel": 80
        },
        {
            "chan": 8,
            "dur": 8,
            "note": 34,
            "part": "bass",
            "vel": 80
        }
    ],
    "766": [
        {
            "chan": 9,
            "dur": 2,
            "note": 36,
            "part": "drum",
            "vel": 80
        }
    ],
    "768": [
        {
            "chan": 2,
            "dur": 2,
            "note": 43,
            "part": "guit",
            "vel": 80
        },
        {
            "chan": 8,
            "dur": 2,
            "note": 31,
            "part": "bass",
            "vel": 80
        },
        {
            "chan": 9,
            "dur": 4,
            "note": 51,
            "part": "drum",
            "vel": 80
        },
        {
            "chan": 9,
            "dur": 4,
            "note": 44,
            "part": "drum",
            "vel": 80
        },
        {
            "chan": 9,
            "dur": 4,
            "note": 36,
            "part": "drum",
            "vel": 80
        }
    ],
    "770": [
        {
            "chan": 0,
            "dur": 2,
            "note": 75,
            "part": "picc",
            "vel": 80
        },
        {
            "chan": 2,
            "dur": 2,
            "note": 43,
            "part": "guit",
            "vel": 80
        }
    ],
    "772": [
        {
            "chan": 0,
            "dur": 2,
            "note": 74,
            "part": "picc",
            "vel": 80
        },
        {
            "chan": 2,
            "dur": 2,
            "note": 43,
            "part": "guit",
            "vel": 80
        },
        {
            "chan": 9,
            "dur": 4,
            "note": 51,
            "part": "drum",
            "vel": 80
        }
    ],
    "774": [
        {
            "chan": 1,
            "dur": 2,
            "note": 70,
            "part": "flute",
            "vel": 80
        },
        {
            "chan": 2,
            "dur": 2,
            "note": 43,
            "part": "guit",
            "vel": 80
        }
    ],
    "776": [
        {
            "chan": 1,
            "dur": 2,
            "note": 67,
            "part": "flute",
            "vel": 80
        },
        {
            "chan": 2,
            "dur": 2,
            "note": 43,
            "part": "guit",
            "vel": 80
        },
        {
            "chan": 2,
            "dur": 2,
            "note": 57,
            "part": "guit",
            "vel": 80
        },
        {
            "chan": 8,
            "dur": 2,
            "note": 31,
            "part": "bass",
            "vel": 80
        },
        {
            "chan": 9,
            "dur": 2,
            "note": 44,
            "part": "drum",
            "vel": 80
        },
        {
            "chan": 9,
            "dur": 2,
            "note": 35,
            "part": "drum",
            "vel": 80
        },
        {
            "chan": 9,
            "dur": 4,
            "note": 38,
            "part": "drum",
            "vel": 80
        },
        {
            "chan": 9,
            "dur": 4,
            "note": 46,
            "part": "drum",
            "vel": 80
        },
        {
            "chan": 9,
            "dur": 4,
            "note": 51,
            "part": "drum",
            "vel": 80
        }
    ],
    "778": [
        {
            "chan": 2,
            "dur": 2,
            "note": 43,
            "part": "guit",
            "vel": 80
        }
    ],
    "780": [
        {
            "chan": 0,
            "dur": 2,
            "note": 75,
            "part": "picc",
            "vel": 80
        },
        {
            "chan": 2,
            "dur": 2,
            "note": 43,
            "part": "guit",
            "vel": 80
        },
        {
            "chan": 9,
            "dur": 4,
            "note": 51,
            "part": "drum",
            "vel": 80
        }
    ],
    "782": [
        {
            "chan": 0,
            "dur": 2,
            "note": 74,
            "part": "picc",
            "vel": 80
        },
        {
            "chan": 2,
            "dur": 2,
            "note": 43,
            "part": "guit",
            "vel": 80
        }
    ],
    "784": [
        {
            "chan": 1,
            "dur": 2,
            "note": 70,
            "part": "flute",
            "vel": 80
        },
        {
            "chan": 2,
            "dur": 2,
            "note": 43,
            "part": "guit",
            "vel": 80
        },
        {
            "chan": 9,
            "dur": 2,
            "note": 36,
            "part": "drum",
            "vel": 80
        },
        {
            "chan": 9,
            "dur": 4,
            "note": 51,
            "part": "drum",
            "vel": 80
        }
    ],
    "786": [
        {
            "chan": 1,
            "dur": 2,
            "note": 67,
            "part": "flute",
            "vel": 80
        },
        {
            "chan": 2,
            "dur": 2,
            "note": 43,
            "part": "guit",
            "vel": 80
        },
        {
            "chan": 2,
            "dur": 2,
            "note": 57,
            "part": "guit",
            "vel": 80
        },
        {
            "chan": 8,
            "dur": 2,
            "note": 31,
            "part": "bass",
            "vel": 80
        },
        {
            "chan": 9,
            "dur": 2,
            "note": 44,
            "part": "drum",
            "vel": 80
        },
        {
            "chan": 9,
            "dur": 2,
            "note": 35,
            "part": "drum",
            "vel": 80
        }
    ],
    "788": [
        {
            "chan": 2,
            "dur": 2,
            "note": 43,
            "part": "guit",
            "vel": 80
        },
        {
            "chan": 9,
            "dur": 4,
            "note": 51,
            "part": "drum",
            "vel": 80
        }
    ],
    "790": [
        {
            "chan": 1,
            "dur": 2,
            "note": 67,
            "part": "flute",
            "vel": 80
        },
        {
            "chan": 2,
            "dur": 2,
            "note": 43,
            "part": "guit",
            "vel": 80
        },
        {
            "chan": 2,
            "dur": 2,
            "note": 57,
            "part": "guit",
            "vel": 80
        },
        {
            "chan": 8,
            "dur": 2,
            "note": 31,
            "part": "bass",
            "vel": 80
        },
        {
            "chan": 9,
            "dur": 2,
            "note": 35,
            "part": "drum",
            "vel": 80
        }
    ],
    "792": [
        {
            "chan": 2,
            "dur": 2,
            "note": 43,
            "part": "guit",
            "vel": 80
        },
        {
            "chan": 9,
            "dur": 4,
            "note": 38,
            "part": "drum",
            "vel": 80
        },
        {
            "chan": 9,
            "dur": 4,
            "note": 51,
            "part": "drum",
            "vel": 80
        }
    ],
    "794": [
        {
            "chan": 0,
            "dur": 2,
            "note": 75,
            "part": "picc",
            "vel": 80
        },
        {
            "chan": 2,
            "dur": 2,
            "note": 43,
            "part": "guit",
            "vel": 80
        }
    ],
    "796": [
        {
            "chan": 0,
            "dur": 2,
            "note": 74,
            "part": "picc",
            "vel": 80
        },
        {
            "chan": 2,
            "dur": 2,
            "note": 43,
            "part": "guit",
            "vel": 80
        },
        {
            "chan": 9,
            "dur": 2,
            "note": 42,
            "part": "drum",
            "vel": 80
        }
    ],
    "798": [
        {
            "chan": 1,
            "dur": 2,
            "note": 70,
            "part": "flute",
            "vel": 80
        },
        {
            "chan": 2,
            "dur": 2,
            "note": 43,
            "part": "guit",
            "vel": 80
        },
        {
            "chan": 9,
            "dur": 2,
            "note": 42,
            "part": "drum",
            "vel": 80
        }
    ],
    "800": [
        {
            "chan": 1,
            "dur": 2,
            "note": 67,
            "part": "flute",
            "vel": 80
        },
        {
            "chan": 2,
            "dur": 2,
            "note": 43,
            "part": "guit",
            "vel": 80
        },
        {
            "chan": 2,
            "dur": 2,
            "note": 57,
            "part": "guit",
            "vel": 80
        },
        {
            "chan": 8,
            "dur": 2,
            "note": 31,
            "part": "bass",
            "vel": 80
        },
        {
            "chan": 9,
            "dur": 4,
            "note": 51,
            "part": "drum",
            "vel": 80
        },
        {
            "chan": 9,
            "dur": 4,
            "note": 42,
            "part": "drum",
            "vel": 80
        },
        {
            "chan": 9,
            "dur": 4,
            "note": 36,
            "part": "drum",
            "vel": 80
        }
    ],
    "802": [
        {
            "chan": 2,
            "dur": 2,
            "note": 43,
            "part": "guit",
            "vel": 80
        }
    ],
    "804": [
        {
            "chan": 1,
            "dur": 2,
            "note": 81,
            "part": "flute",
            "vel": 80
        },
        {
            "chan": 0,
            "dur": 2,
            "note": 81,
            "part": "picc",
            "vel": 80
        },
        {
            "chan": 2,
            "dur": 2,
            "note": 43,
            "part": "guit",
            "vel": 80
        },
        {
            "chan": 9,
            "dur": 4,
            "note": 51,
            "part": "drum",
            "vel": 80
        }
    ],
    "806": [
        {
            "chan": 1,
            "dur": 2,
            "note": 79,
            "part": "flute",
            "vel": 80
        },
        {
            "chan": 2,
            "dur": 2,
            "note": 58,
            "part": "guit",
            "vel": 80
        }
    ],
    "808": [
        {
            "chan": 1,
            "dur": 2,
            "note": 75,
            "part": "flute",
            "vel": 80
        },
        {
            "chan": 0,
            "dur": 2,
            "note": 75,
            "part": "picc",
            "vel": 80
        },
        {
            "chan": 9,
            "dur": 2,
            "note": 51,
            "part": "drum",
            "vel": 80
        },
        {
            "chan": 9,
            "dur": 2,
            "note": 42,
            "part": "drum",
            "vel": 80
        },
        {
            "chan": 9,
            "dur": 2,
            "note": 35,
            "part": "drum",
            "vel": 80
        }
    ],
    "810": [
        {
            "chan": 1,
            "dur": 2,
            "note": 77,
            "part": "flute",
            "vel": 80
        },
        {
            "chan": 2,
            "dur": 2,
            "note": 57,
            "part": "guit",
            "vel": 80
        },
        {
            "chan": 9,
            "dur": 2,
            "note": 38,
            "part": "drum",
            "vel": 80
        }
    ],
    "812": [
        {
            "chan": 1,
            "dur": 2,
            "note": 77,
            "part": "flute",
            "vel": 80
        },
        {
            "chan": 0,
            "dur": 2,
            "note": 77,
            "part": "picc",
            "vel": 80
        },
        {
            "chan": 9,
            "dur": 2,
            "note": 51,
            "part": "drum",
            "vel": 80
        }
    ],
    "814": [
        {
            "chan": 1,
            "dur": 2,
            "note": 75,
            "part": "flute",
            "vel": 80
        },
        {
            "chan": 2,
            "dur": 2,
            "note": 55,
            "part": "guit",
            "vel": 80
        },
        {
            "chan": 9,
            "dur": 2,
            "note": 38,
            "part": "drum",
            "vel": 80
        }
    ],
    "816": [
        {
            "chan": 1,
            "dur": 2,
            "note": 72,
            "part": "flute",
            "vel": 80
        },
        {
            "chan": 0,
            "dur": 2,
            "note": 84,
            "part": "picc",
            "vel": 80
        },
        {
            "chan": 9,
            "dur": 2,
            "note": 42,
            "part": "drum",
            "vel": 80
        }
    ],
    "818": [
        {
            "chan": 1,
            "dur": 2,
            "note": 75,
            "part": "flute",
            "vel": 80
        },
        {
            "chan": 2,
            "dur": 2,
            "note": 55,
            "part": "guit",
            "vel": 80
        },
        {
            "chan": 9,
            "dur": 2,
            "note": 38,
            "part": "drum",
            "vel": 80
        },
        {
            "chan": 9,
            "dur": 2,
            "note": 51,
            "part": "drum",
            "vel": 80
        }
    ],
    "820": [
        {
            "chan": 1,
            "dur": 2,
            "note": 81,
            "part": "flute",
            "vel": 80
        },
        {
            "chan": 0,
            "dur": 2,
            "note": 81,
            "part": "picc",
            "vel": 80
        },
        {
            "chan": 9,
            "dur": 2,
            "note": 51,
            "part": "drum",
            "vel": 80
        }
    ],
    "822": [
        {
            "chan": 1,
            "dur": 2,
            "note": 79,
            "part": "flute",
            "vel": 80
        },
        {
            "chan": 2,
            "dur": 2,
            "note": 53,
            "part": "guit",
            "vel": 80
        },
        {
            "chan": 9,
            "dur": 2,
            "note": 36,
            "part": "drum",
            "vel": 80
        }
    ],
    "824": [
        {
            "chan": 1,
            "dur": 2,
            "note": 75,
            "part": "flute",
            "vel": 80
        },
        {
            "chan": 0,
            "dur": 2,
            "note": 75,
            "part": "picc",
            "vel": 80
        },
        {
            "chan": 9,
            "dur": 2,
            "note": 42,
            "part": "drum",
            "vel": 80
        }
    ],
    "826": [
        {
            "chan": 0,
            "dur": 2,
            "note": 79,
            "part": "picc",
            "vel": 80
        },
        {
            "chan": 2,
            "dur": 2,
            "note": 51,
            "part": "guit",
            "vel": 80
        },
        {
            "chan": 9,
            "dur": 2,
            "note": 42,
            "part": "drum",
            "vel": 80
        }
    ],
    "828": [
        {
            "chan": 0,
            "dur": 2,
            "note": 81,
            "part": "picc",
            "vel": 80
        },
        {
            "chan": 2,
            "dur": 2,
            "note": 50,
            "part": "guit",
            "vel": 80
        },
        {
            "chan": 9,
            "dur": 2,
            "note": 42,
            "part": "drum",
            "vel": 80
        }
    ],
    "830": [
        {
            "chan": 0,
            "dur": 2,
            "note": 82,
            "part": "picc",
            "vel": 80
        },
        {
            "chan": 2,
            "dur": 2,
            "note": 46,
            "part": "guit",
            "vel": 80
        },
        {
            "chan": 9,
            "dur": 2,
            "note": 42,
            "part": "drum",
            "vel": 80
        }
    ],
    "832": [
        {
            "chan": 0,
            "dur": 2,
            "note": 87,
            "part": "picc",
            "vel": 80
        },
        {
            "chan": 1,
            "dur": 2,
            "note": 69,
            "part": "flute",
            "vel": 80
        },
        {
            "chan": 8,
            "dur": 2,
            "note": 39,
            "part": "bass",
            "vel": 80
        },
        {
            "chan": 9,
            "dur": 8,
            "note": 57,
            "part": "drum",
            "vel": 80
        },
        {
            "chan": 9,
            "dur": 8,
            "note": 35,
            "part": "drum",
            "vel": 80
        },
        {
            "chan": 2,
            "dur": 32,
            "note": 45,
            "part": "guit",
            "vel": 80
        },
        {
            "chan": 2,
            "dur": 32,
            "note": 57,
            "part": "guit",
            "vel": 80
        },
        {
            "chan": 2,
            "dur": 32,
            "note": 63,
            "part": "guit",
            "vel": 80
        },
        {
            "chan": 2,
            "dur": 32,
            "note": 69,
            "part": "guit",
            "vel": 80
        }
    ],
    "840": [
        {
            "chan": 9,
            "dur": 8,
            "note": 51,
            "part": "drum",
            "vel": 80
        }
    ],
    "846": [
        {
            "chan": 9,
            "dur": 2,
            "note": 36,
            "part": "drum",
            "vel": 80
        }
    ],
    "848": [
        {
            "chan": 1,
            "dur": 2,
            "note": 69,
            "part": "flute",
            "vel": 80
        },
        {
            "chan": 0,
            "dur": 2,
            "note": 87,
            "part": "picc",
            "vel": 80
        },
        {
            "chan": 8,
            "dur": 2,
            "note": 39,
            "part": "bass",
            "vel": 80
        },
        {
            "chan": 9,
            "dur": 2,
            "note": 38,
            "part": "drum",
            "vel": 80
        },
        {
            "chan": 9,
            "dur": 4,
            "note": 51,
            "part": "drum",
            "vel": 80
        }
    ],
    "854": [
        {
            "chan": 1,
            "dur": 2,
            "note": 69,
            "part": "flute",
            "vel": 80
        },
        {
            "chan": 0,
            "dur": 2,
            "note": 87,
            "part": "picc",
            "vel": 80
        },
        {
            "chan": 8,
            "dur": 2,
            "note": 39,
            "part": "bass",
            "vel": 80
        },
        {
            "chan": 9,
            "dur": 2,
            "note": 38,
            "part": "drum",
            "vel": 80
        }
    ],
    "856": [
        {
            "chan": 9,
            "dur": 4,
            "note": 51,
            "part": "drum",
            "vel": 80
        }
    ],
    "860": [
        {
            "chan": 9,
            "dur": 2,
            "note": 36,
            "part": "drum",
            "vel": 80
        }
    ],
    "862": [
        {
            "chan": 1,
            "dur": 2,
            "note": 69,
            "part": "flute",
            "vel": 80
        },
        {
            "chan": 0,
            "dur": 2,
            "note": 87,
            "part": "picc",
            "vel": 80
        },
        {
            "chan": 8,
            "dur": 2,
            "note": 39,
            "part": "bass",
            "vel": 80
        },
        {
            "chan": 9,
            "dur": 2,
            "note": 38,
            "part": "drum",
            "vel": 80
        }
    ],
    "864": [
        {
            "chan": 1,
            "dur": 2,
            "note": 70,
            "part": "flute",
            "vel": 80
        },
        {
            "chan": 0,
            "dur": 2,
            "note": 86,
            "part": "picc",
            "vel": 80
        },
        {
            "chan": 8,
            "dur": 2,
            "note": 38,
            "part": "bass",
            "vel": 80
        },
        {
            "chan": 9,
            "dur": 8,
            "note": 57,
            "part": "drum",
            "vel": 80
        },
        {
            "chan": 9,
            "dur": 8,
            "note": 35,
            "part": "drum",
            "vel": 80
        },
        {
            "chan": 2,
            "dur": 32,
            "note": 46,
            "part": "guit",
            "vel": 80
        },
        {
            "chan": 2,
            "dur": 32,
            "note": 55,
            "part": "guit",
            "vel": 80
        },
        {
            "chan": 2,
            "dur": 32,
            "note": 62,
            "part": "guit",
            "vel": 80
        },
        {
            "chan": 2,
            "dur": 32,
            "note": 67,
            "part": "guit",
            "vel": 80
        }
    ],
    "872": [
        {
            "chan": 9,
            "dur": 2,
            "note": 51,
            "part": "drum",
            "vel": 80
        },
        {
            "chan": 9,
            "dur": 2,
            "note": 36,
            "part": "drum",
            "vel": 80
        }
    ],
    "874": [
        {
            "chan": 1,
            "dur": 2,
            "note": 70,
            "part": "flute",
            "vel": 80
        },
        {
            "chan": 0,
            "dur": 2,
            "note": 86,
            "part": "picc",
            "vel": 80
        },
        {
            "chan": 8,
            "dur": 2,
            "note": 38,
            "part": "bass",
            "vel": 80
        },
        {
            "chan": 9,
            "dur": 2,
            "note": 38,
            "part": "drum",
            "vel": 80
        }
    ],
    "878": [
        {
            "chan": 1,
            "dur": 2,
            "note": 70,
            "part": "flute",
            "vel": 80
        },
        {
            "chan": 0,
            "dur": 2,
            "note": 86,
            "part": "picc",
            "vel": 80
        },
        {
            "chan": 8,
            "dur": 2,
            "note": 38,
            "part": "bass",
            "vel": 80
        },
        {
            "chan": 9,
            "dur": 2,
            "note": 38,
            "part": "drum",
            "vel": 80
        }
    ],
    "880": [
        {
            "chan": 9,
            "dur": 4,
            "note": 51,
            "part": "drum",
            "vel": 80
        }
    ],
    "882": [
        {
            "chan": 9,
            "dur": 2,
            "note": 35,
            "part": "drum",
            "vel": 80
        }
    ],
    "884": [
        {
            "chan": 1,
            "dur": 2,
            "note": 70,
            "part": "flute",
            "vel": 80
        },
        {
            "chan": 0,
            "dur": 2,
            "note": 86,
            "part": "picc",
            "vel": 80
        },
        {
            "chan": 8,
            "dur": 2,
            "note": 38,
            "part": "bass",
            "vel": 80
        },
        {
            "chan": 9,
            "dur": 2,
            "note": 38,
            "part": "drum",
            "vel": 80
        }
    ],
    "886": [
        {
            "chan": 1,
            "dur": 2,
            "note": 70,
            "part": "flute",
            "vel": 80
        },
        {
            "chan": 0,
            "dur": 2,
            "note": 86,
            "part": "picc",
            "vel": 80
        },
        {
            "chan": 8,
            "dur": 2,
            "note": 38,
            "part": "bass",
            "vel": 80
        },
        {
            "chan": 9,
            "dur": 2,
            "note": 38,
            "part": "drum",
            "vel": 80
        }
    ],
    "888": [
        {
            "chan": 9,
            "dur": 2,
            "note": 51,
            "part": "drum",
            "vel": 80
        },
        {
            "chan": 9,
            "dur": 2,
            "note": 35,
            "part": "drum",
            "vel": 80
        }
    ],
    "890": [
        {
            "chan": 1,
            "dur": 2,
            "note": 70,
            "part": "flute",
            "vel": 80
        },
        {
            "chan": 0,
            "dur": 2,
            "note": 86,
            "part": "picc",
            "vel": 80
        },
        {
            "chan": 8,
            "dur": 2,
            "note": 38,
            "part": "bass",
            "vel": 80
        },
        {
            "chan": 9,
            "dur": 2,
            "note": 38,
            "part": "drum",
            "vel": 64
        }
    ],
    "892": [
        {
            "chan": 1,
            "dur": 2,
            "note": 70,
            "part": "flute",
            "vel": 80
        },
        {
            "chan": 0,
            "dur": 2,
            "note": 86,
            "part": "picc",
            "vel": 80
        },
        {
            "chan": 8,
            "dur": 2,
            "note": 38,
            "part": "bass",
            "vel": 80
        },
        {
            "chan": 9,
            "dur": 2,
            "note": 38,
            "part": "drum",
            "vel": 64
        }
    ],
    "894": [
        {
            "chan": 1,
            "dur": 2,
            "note": 70,
            "part": "flute",
            "vel": 80
        },
        {
            "chan": 0,
            "dur": 2,
            "note": 86,
            "part": "picc",
            "vel": 80
        },
        {
            "chan": 8,
            "dur": 2,
            "note": 38,
            "part": "bass",
            "vel": 80
        },
        {
            "chan": 9,
            "dur": 2,
            "note": 38,
            "part": "drum",
            "vel": 64
        }
    ],
    "896": [
        {
            "chan": 0,
            "dur": 2,
            "note": 87,
            "part": "picc",
            "vel": 80
        },
        {
            "chan": 1,
            "dur": 2,
            "note": 72,
            "part": "flute",
            "vel": 80
        },
        {
            "chan": 8,
            "dur": 2,
            "note": 39,
            "part": "bass",
            "vel": 80
        },
        {
            "chan": 9,
            "dur": 8,
            "note": 57,
            "part": "drum",
            "vel": 64
        },
        {
            "chan": 9,
            "dur": 8,
            "note": 35,
            "part": "drum",
            "vel": 64
        },
        {
            "chan": 2,
            "dur": 32,
            "note": 48,
            "part": "guit",
            "vel": 80
        },
        {
            "chan": 2,
            "dur": 32,
            "note": 55,
            "part": "guit",
            "vel": 80
        },
        {
            "chan": 2,
            "dur": 32,
            "note": 63,
            "part": "guit",
            "vel": 80
        },
        {
            "chan": 2,
            "dur": 32,
            "note": 67,
            "part": "guit",
            "vel": 80
        }
    ],
    "904": [
        {
            "chan": 9,
            "dur": 8,
            "note": 51,
            "part": "drum",
            "vel": 64
        }
    ],
    "910": [
        {
            "chan": 9,
            "dur": 2,
            "note": 36,
            "part": "drum",
            "vel": 64
        }
    ],
    "912": [
        {
            "chan": 1,
            "dur": 2,
            "note": 72,
            "part": "flute",
            "vel": 80
        },
        {
            "chan": 0,
            "dur": 2,
            "note": 87,
            "part": "picc",
            "vel": 80
        },
        {
            "chan": 8,
            "dur": 2,
            "note": 39,
            "part": "bass",
            "vel": 80
        },
        {
            "chan": 9,
            "dur": 2,
            "note": 38,
            "part": "drum",
            "vel": 64
        },
        {
            "chan": 9,
            "dur": 4,
            "note": 51,
            "part": "drum",
            "vel": 64
        }
    ],
    "918": [
        {
            "chan": 1,
            "dur": 2,
            "note": 72,
            "part": "flute",
            "vel": 80
        },
        {
            "chan": 0,
            "dur": 2,
            "note": 87,
            "part": "picc",
            "vel": 80
        },
        {
            "chan": 8,
            "dur": 2,
            "note": 39,
            "part": "bass",
            "vel": 80
        },
        {
            "chan": 9,
            "dur": 2,
            "note": 38,
            "part": "drum",
            "vel": 64
        }
    ],
    "920": [
        {
            "chan": 9,
            "dur": 4,
            "note": 51,
            "part": "drum",
            "vel": 64
        }
    ],
    "924": [
        {
            "chan": 9,
            "dur": 2,
            "note": 36,
            "part": "drum",
            "vel": 64
        }
    ],
    "926": [
        {
            "chan": 1,
            "dur": 2,
            "note": 72,
            "part": "flute",
            "vel": 80
        },
        {
            "chan": 0,
            "dur": 2,
            "note": 87,
            "part": "picc",
            "vel": 80
        },
        {
            "chan": 8,
            "dur": 2,
            "note": 39,
            "part": "bass",
            "vel": 80
        },
        {
            "chan": 9,
            "dur": 2,
            "note": 38,
            "part": "drum",
            "vel": 64
        }
    ],
    "928": [
        {
            "chan": 9,
            "dur": 4,
            "note": 57,
            "part": "drum",
            "vel": 64
        },
        {
            "chan": 9,
            "dur": 6,
            "note": 36,
            "part": "drum",
            "vel": 64
        },
        {
            "chan": 8,
            "dur": 8,
            "note": 41,
            "part": "bass",
            "vel": 80
        },
        {
            "chan": 2,
            "dur": 24,
            "note": 48,
            "part": "guit",
            "vel": 80
        },
        {
            "chan": 2,
            "dur": 24,
            "note": 57,
            "part": "guit",
            "vel": 80
        },
        {
            "chan": 2,
            "dur": 24,
            "note": 60,
            "part": "guit",
            "vel": 80
        }
    ],
    "930": [
        {
            "chan": 0,
            "dur": 2,
            "note": 86,
            "part": "picc",
            "vel": 80
        }
    ],
    "932": [
        {
            "chan": 0,
            "dur": 2,
            "note": 84,
            "part": "picc",
            "vel": 80
        }
    ],
    "934": [
        {
            "chan": 0,
            "dur": 2,
            "note": 81,
            "part": "picc",
            "vel": 80
        },
        {
            "chan": 9,
            "dur": 2,
            "note": 36,
            "part": "drum",
            "vel": 64
        }
    ],
    "936": [
        {
            "chan": 0,
            "dur": 2,
            "note": 77,
            "part": "picc",
            "vel": 80
        },
        {
            "chan": 9,
            "dur": 2,
            "note": 38,
            "part": "drum",
            "vel": 64
        },
        {
            "chan": 9,
            "dur": 2,
            "note": 52,
            "part": "drum",
            "vel": 64
        },
        {
            "chan": 8,
            "dur": 8,
            "note": 39,
            "part": "bass",
            "vel": 80
        }
    ],
    "938": [
        {
            "chan": 1,
            "dur": 2,
            "note": 74,
            "part": "flute",
            "vel": 80
        }
    ],
    "940": [
        {
            "chan": 1,
            "dur": 2,
            "note": 72,
            "part": "flute",
            "vel": 80
        }
    ],
    "942": [
        {
            "chan": 1,
            "dur": 2,
            "note": 69,
            "part": "flute",
            "vel": 80
        },
        {
            "chan": 9,
            "dur": 2,
            "note": 35,
            "part": "drum",
            "vel": 64
        }
    ],
    "944": [
        {
            "chan": 1,
            "dur": 2,
            "note": 65,
            "part": "flute",
            "vel": 80
        },
        {
            "chan": 9,
            "dur": 2,
            "note": 47,
            "part": "drum",
            "vel": 64
        },
        {
            "chan": 9,
            "dur": 2,
            "note": 52,
            "part": "drum",
            "vel": 64
        }
    ],
    "946": [
        {
            "chan": 8,
            "dur": 2,
            "note": 50,
            "part": "bass",
            "vel": 80
        },
        {
            "chan": 9,
            "dur": 2,
            "note": 47,
            "part": "drum",
            "vel": 64
        }
    ],
    "948": [
        {
            "chan": 8,
            "dur": 2,
            "note": 48,
            "part": "bass",
            "vel": 80
        },
        {
            "chan": 9,
            "dur": 2,
            "note": 45,
            "part": "drum",
            "vel": 64
        }
    ],
    "950": [
        {
            "chan": 8,
            "dur": 2,
            "note": 45,
            "part": "bass",
            "vel": 80
        },
        {
            "chan": 9,
            "dur": 2,
            "note": 45,
            "part": "drum",
            "vel": 64
        }
    ],
    "952": [
        {
            "chan": 0,
            "dur": 2,
            "note": 87,
            "part": "picc",
            "vel": 80
        },
        {
            "chan": 1,
            "dur": 2,
            "note": 69,
            "part": "flute",
            "vel": 80
        },
        {
            "chan": 8,
            "dur": 2,
            "note": 39,
            "part": "bass",
            "vel": 80
        },
        {
            "chan": 9,
            "dur": 8,
            "note": 57,
            "part": "drum",
            "vel": 64
        },
        {
            "chan": 9,
            "dur": 8,
            "note": 35,
            "part": "drum",
            "vel": 64
        },
        {
            "chan": 2,
            "dur": 32,
            "note": 48,
            "part": "guit",
            "vel": 80
        },
        {
            "chan": 2,
            "dur": 32,
            "note": 57,
            "part": "guit",
            "vel": 80
        },
        {
            "chan": 2,
            "dur": 32,
            "note": 63,
            "part": "guit",
            "vel": 80
        },
        {
            "chan": 2,
            "dur": 32,
            "note": 69,
            "part": "guit",
            "vel": 80
        }
    ],
    "960": [
        {
            "chan": 9,
            "dur": 8,
            "note": 51,
            "part": "drum",
            "vel": 64
        }
    ],
    "966": [
        {
            "chan": 9,
            "dur": 2,
            "note": 36,
            "part": "drum",
            "vel": 64
        }
    ],
    "968": [
        {
            "chan": 1,
            "dur": 2,
            "note": 69,
            "part": "flute",
            "vel": 80
        },
        {
            "chan": 0,
            "dur": 2,
            "note": 87,
            "part": "picc",
            "vel": 80
        },
        {
            "chan": 8,
            "dur": 2,
            "note": 39,
            "part": "bass",
            "vel": 80
        },
        {
            "chan": 9,
            "dur": 2,
            "note": 38,
            "part": "drum",
            "vel": 64
        },
        {
            "chan": 9,
            "dur": 4,
            "note": 51,
            "part": "drum",
            "vel": 64
        }
    ],
    "974": [
        {
            "chan": 1,
            "dur": 2,
            "note": 69,
            "part": "flute",
            "vel": 80
        },
        {
            "chan": 0,
            "dur": 2,
            "note": 87,
            "part": "picc",
            "vel": 80
        },
        {
            "chan": 8,
            "dur": 2,
            "note": 39,
            "part": "bass",
            "vel": 80
        },
        {
            "chan": 9,
            "dur": 2,
            "note": 38,
            "part": "drum",
            "vel": 64
        }
    ],
    "976": [
        {
            "chan": 9,
            "dur": 4,
            "note": 51,
            "part": "drum",
            "vel": 64
        }
    ],
    "980": [
        {
            "chan": 9,
            "dur": 2,
            "note": 36,
            "part": "drum",
            "vel": 64
        }
    ],
    "982": [
        {
            "chan": 1,
            "dur": 2,
            "note": 69,
            "part": "flute",
            "vel": 80
        },
        {
            "chan": 0,
            "dur": 2,
            "note": 87,
            "part": "picc",
            "vel": 80
        },
        {
            "chan": 8,
            "dur": 2,
            "note": 39,
            "part": "bass",
            "vel": 80
        },
        {
            "chan": 9,
            "dur": 2,
            "note": 38,
            "part": "drum",
            "vel": 64
        }
    ],
    "984": [
        {
            "chan": 1,
            "dur": 2,
            "note": 70,
            "part": "flute",
            "vel": 80
        },
        {
            "chan": 0,
            "dur": 2,
            "note": 86,
            "part": "picc",
            "vel": 80
        },
        {
            "chan": 8,
            "dur": 2,
            "note": 38,
            "part": "bass",
            "vel": 80
        },
        {
            "chan": 9,
            "dur": 8,
            "note": 57,
            "part": "drum",
            "vel": 64
        },
        {
            "chan": 9,
            "dur": 8,
            "note": 35,
            "part": "drum",
            "vel": 64
        },
        {
            "chan": 2,
            "dur": 32,
            "note": 46,
            "part": "guit",
            "vel": 80
        },
        {
            "chan": 2,
            "dur": 32,
            "note": 55,
            "part": "guit",
            "vel": 80
        },
        {
            "chan": 2,
            "dur": 32,
            "note": 62,
            "part": "guit",
            "vel": 80
        },
        {
            "chan": 2,
            "dur": 32,
            "note": 67,
            "part": "guit",
            "vel": 80
        }
    ],
    "992": [
        {
            "chan": 9,
            "dur": 2,
            "note": 51,
            "part": "drum",
            "vel": 64
        },
        {
            "chan": 9,
            "dur": 2,
            "note": 36,
            "part": "drum",
            "vel": 64
        }
    ],
    "994": [
        {
            "chan": 1,
            "dur": 2,
            "note": 70,
            "part": "flute",
            "vel": 80
        },
        {
            "chan": 0,
            "dur": 2,
            "note": 86,
            "part": "picc",
            "vel": 80
        },
        {
            "chan": 8,
            "dur": 2,
            "note": 38,
            "part": "bass",
            "vel": 80
        },
        {
            "chan": 9,
            "dur": 2,
            "note": 38,
            "part": "drum",
            "vel": 64
        }
    ],
    "998": [
        {
            "chan": 1,
            "dur": 2,
            "note": 70,
            "part": "flute",
            "vel": 80
        },
        {
            "chan": 0,
            "dur": 2,
            "note": 86,
            "part": "picc",
            "vel": 80
        },
        {
            "chan": 8,
            "dur": 2,
            "note": 38,
            "part": "bass",
            "vel": 80
        },
        {
            "chan": 9,
            "dur": 2,
            "note": 38,
            "part": "drum",
            "vel": 64
        }
    ],
    "1000": [
        {
            "chan": 9,
            "dur": 4,
            "note": 51,
            "part": "drum",
            "vel": 64
        }
    ],
    "1002": [
        {
            "chan": 9,
            "dur": 2,
            "note": 35,
            "part": "drum",
            "vel": 64
        }
    ],
    "1004": [
        {
            "chan": 1,
            "dur": 2,
            "note": 70,
            "part": "flute",
            "vel": 80
        },
        {
            "chan": 0,
            "dur": 2,
            "note": 86,
            "part": "picc",
            "vel": 80
        },
        {
            "chan": 8,
            "dur": 2,
            "note": 38,
            "part": "bass",
            "vel": 80
        },
        {
            "chan": 9,
            "dur": 2,
            "note": 38,
            "part": "drum",
            "vel": 64
        }
    ],
    "1006": [
        {
            "chan": 1,
            "dur": 2,
            "note": 70,
            "part": "flute",
            "vel": 80
        },
        {
            "chan": 0,
            "dur": 2,
            "note": 86,
            "part": "picc",
            "vel": 80
        },
        {
            "chan": 8,
            "dur": 2,
            "note": 38,
            "part": "bass",
            "vel": 80
        },
        {
            "chan": 9,
            "dur": 2,
            "note": 38,
            "part": "drum",
            "vel": 64
        }
    ],
    "1008": [
        {
            "chan": 9,
            "dur": 2,
            "note": 51,
            "part": "drum",
            "vel": 64
        },
        {
            "chan": 9,
            "dur": 2,
            "note": 35,
            "part": "drum",
            "vel": 64
        }
    ],
    "1010": [
        {
            "chan": 1,
            "dur": 2,
            "note": 70,
            "part": "flute",
            "vel": 80
        },
        {
            "chan": 0,
            "dur": 2,
            "note": 86,
            "part": "picc",
            "vel": 80
        },
        {
            "chan": 8,
            "dur": 2,
            "note": 38,
            "part": "bass",
            "vel": 80
        },
        {
            "chan": 9,
            "dur": 2,
            "note": 38,
            "part": "drum",
            "vel": 64
        }
    ],
    "1012": [
        {
            "chan": 1,
            "dur": 2,
            "note": 70,
            "part": "flute",
            "vel": 80
        },
        {
            "chan": 0,
            "dur": 2,
            "note": 86,
            "part": "picc",
            "vel": 80
        },
        {
            "chan": 8,
            "dur": 2,
            "note": 38,
            "part": "bass",
            "vel": 80
        },
        {
            "chan": 9,
            "dur": 2,
            "note": 38,
            "part": "drum",
            "vel": 69
        }
    ],
    "1014": [
        {
            "chan": 1,
            "dur": 2,
            "note": 70,
            "part": "flute",
            "vel": 80
        },
        {
            "chan": 0,
            "dur": 2,
            "note": 86,
            "part": "picc",
            "vel": 80
        },
        {
            "chan": 8,
            "dur": 2,
            "note": 38,
            "part": "bass",
            "vel": 80
        },
        {
            "chan": 9,
            "dur": 2,
            "note": 38,
            "part": "drum",
            "vel": 74
        }
    ],
    "1016": [
        {
            "chan": 0,
            "dur": 2,
            "note": 87,
            "part": "picc",
            "vel": 80
        },
        {
            "chan": 1,
            "dur": 2,
            "note": 72,
            "part": "flute",
            "vel": 80
        },
        {
            "chan": 8,
            "dur": 2,
            "note": 39,
            "part": "bass",
            "vel": 80
        },
        {
            "chan": 9,
            "dur": 8,
            "note": 57,
            "part": "drum",
            "vel": 80
        },
        {
            "chan": 9,
            "dur": 8,
            "note": 35,
            "part": "drum",
            "vel": 80
        },
        {
            "chan": 2,
            "dur": 32,
            "note": 48,
            "part": "guit",
            "vel": 80
        },
        {
            "chan": 2,
            "dur": 32,
            "note": 55,
            "part": "guit",
            "vel": 80
        },
        {
            "chan": 2,
            "dur": 32,
            "note": 63,
            "part": "guit",
            "vel": 80
        },
        {
            "chan": 2,
            "dur": 32,
            "note": 67,
            "part": "guit",
            "vel": 80
        }
    ],
    "1024": [
        {
            "chan": 9,
            "dur": 8,
            "note": 51,
            "part": "drum",
            "vel": 80
        }
    ],
    "1030": [
        {
            "chan": 9,
            "dur": 2,
            "note": 36,
            "part": "drum",
            "vel": 80
        }
    ],
    "1032": [
        {
            "chan": 1,
            "dur": 2,
            "note": 72,
            "part": "flute",
            "vel": 80
        },
        {
            "chan": 0,
            "dur": 2,
            "note": 87,
            "part": "picc",
            "vel": 80
        },
        {
            "chan": 8,
            "dur": 2,
            "note": 39,
            "part": "bass",
            "vel": 80
        },
        {
            "chan": 9,
            "dur": 2,
            "note": 38,
            "part": "drum",
            "vel": 80
        },
        {
            "chan": 9,
            "dur": 4,
            "note": 51,
            "part": "drum",
            "vel": 80
        }
    ],
    "1038": [
        {
            "chan": 1,
            "dur": 2,
            "note": 72,
            "part": "flute",
            "vel": 80
        },
        {
            "chan": 0,
            "dur": 2,
            "note": 87,
            "part": "picc",
            "vel": 80
        },
        {
            "chan": 8,
            "dur": 2,
            "note": 39,
            "part": "bass",
            "vel": 80
        },
        {
            "chan": 9,
            "dur": 2,
            "note": 38,
            "part": "drum",
            "vel": 80
        }
    ],
    "1040": [
        {
            "chan": 9,
            "dur": 4,
            "note": 51,
            "part": "drum",
            "vel": 80
        }
    ],
    "1044": [
        {
            "chan": 9,
            "dur": 2,
            "note": 36,
            "part": "drum",
            "vel": 80
        }
    ],
    "1046": [
        {
            "chan": 1,
            "dur": 2,
            "note": 72,
            "part": "flute",
            "vel": 80
        },
        {
            "chan": 0,
            "dur": 2,
            "note": 87,
            "part": "picc",
            "vel": 80
        },
        {
            "chan": 8,
            "dur": 2,
            "note": 39,
            "part": "bass",
            "vel": 80
        },
        {
            "chan": 9,
            "dur": 2,
            "note": 38,
            "part": "drum",
            "vel": 80
        }
    ],
    "1048": [
        {
            "chan": 1,
            "dur": 2,
            "note": 74,
            "part": "flute",
            "vel": 80
        },
        {
            "chan": 0,
            "dur": 2,
            "note": 90,
            "part": "picc",
            "vel": 80
        },
        {
            "chan": 2,
            "dur": 2,
            "note": 50,
            "part": "guit",
            "vel": 80
        },
        {
            "chan": 2,
            "dur": 2,
            "note": 57,
            "part": "guit",
            "vel": 80
        },
        {
            "chan": 2,
            "dur": 2,
            "note": 66,
            "part": "guit",
            "vel": 80
        },
        {
            "chan": 9,
            "dur": 2,
            "note": 52,
            "part": "drum",
            "vel": 80
        },
        {
            "chan": 9,
            "dur": 2,
            "note": 35,
            "part": "drum",
            "vel": 80
        },
        {
            "chan": 8,
            "dur": 8,
            "note": 38,
            "part": "bass",
            "vel": 80
        }
    ],
    "1050": [
        {
            "chan": 9,
            "dur": 2,
            "note": 36,
            "part": "drum",
            "vel": 80
        }
    ],
    "1054": [
        {
            "chan": 1,
            "dur": 2,
            "note": 74,
            "part": "flute",
            "vel": 80
        },
        {
            "chan": 0,
            "dur": 2,
            "note": 90,
            "part": "picc",
            "vel": 80
        },
        {
            "chan": 2,
            "dur": 2,
            "note": 50,
            "part": "guit",
            "vel": 80
        },
        {
            "chan": 2,
            "dur": 2,
            "note": 57,
            "part": "guit",
            "vel": 80
        },
        {
            "chan": 2,
            "dur": 2,
            "note": 66,
            "part": "guit",
            "vel": 80
        },
        {
            "chan": 9,
            "dur": 2,
            "note": 52,
            "part": "drum",
            "vel": 80
        },
        {
            "chan": 9,
            "dur": 2,
            "note": 36,
            "part": "drum",
            "vel": 80
        }
    ],
    "1056": [
        {
            "chan": 9,
            "dur": 2,
            "note": 38,
            "part": "drum",
            "vel": 80
        },
        {
            "chan": 8,
            "dur": 8,
            "note": 38,
            "part": "bass",
            "vel": 80
        }
    ],
    "1060": [
        {
            "chan": 1,
            "dur": 2,
            "note": 74,
            "part": "flute",
            "vel": 80
        },
        {
            "chan": 0,
            "dur": 2,
            "note": 90,
            "part": "picc",
            "vel": 80
        },
        {
            "chan": 2,
            "dur": 2,
            "note": 50,
            "part": "guit",
            "vel": 80
        },
        {
            "chan": 2,
            "dur": 2,
            "note": 57,
            "part": "guit",
            "vel": 80
        },
        {
            "chan": 2,
            "dur": 2,
            "note": 66,
            "part": "guit",
            "vel": 80
        },
        {
            "chan": 9,
            "dur": 2,
            "note": 52,
            "part": "drum",
            "vel": 80
        },
        {
            "chan": 9,
            "dur": 4,
            "note": 36,
            "part": "drum",
            "vel": 80
        }
    ],
    "1064": [
        {
            "chan": 9,
            "dur": 4,
            "note": 36,
            "part": "drum",
            "vel": 80
        },
        {
            "chan": 8,
            "dur": 8,
            "note": 38,
            "part": "bass",
            "vel": 80
        }
    ],
    "1066": [
        {
            "chan": 1,
            "dur": 2,
            "note": 74,
            "part": "flute",
            "vel": 80
        },
        {
            "chan": 0,
            "dur": 2,
            "note": 90,
            "part": "picc",
            "vel": 80
        },
        {
            "chan": 2,
            "dur": 2,
            "note": 50,
            "part": "guit",
            "vel": 80
        },
        {
            "chan": 2,
            "dur": 2,
            "note": 57,
            "part": "guit",
            "vel": 80
        },
        {
            "chan": 2,
            "dur": 2,
            "note": 66,
            "part": "guit",
            "vel": 80
        },
        {
            "chan": 9,
            "dur": 2,
            "note": 52,
            "part": "drum",
            "vel": 80
        }
    ],
    "1068": [
        {
            "chan": 9,
            "dur": 4,
            "note": 49,
            "part": "drum",
            "vel": 80
        }
    ],
    "1072": [
        {
            "chan": 8,
            "dur": 2,
            "note": 38,
            "part": "bass",
            "vel": 80
        },
        {
            "chan": 9,
            "dur": 2,
            "note": 36,
            "part": "drum",
            "vel": 80
        }
    ],
    "1074": [
        {
            "chan": 1,
            "dur": 2,
            "note": 75,
            "part": "flute",
            "vel": 80
        },
        {
            "chan": 0,
            "dur": 2,
            "note": 87,
            "part": "picc",
            "vel": 80
        },
        {
            "chan": 2,
            "dur": 2,
            "note": 51,
            "part": "guit",
            "vel": 80
        },
        {
            "chan": 8,
            "dur": 2,
            "note": 39,
            "part": "bass",
            "vel": 80
        },
        {
            "chan": 9,
            "dur": 2,
            "note": 38,
            "part": "drum",
            "vel": 80
        },
        {
            "chan": 9,
            "dur": 2,
            "note": 42,
            "part": "drum",
            "vel": 80
        }
    ],
    "1076": [
        {
            "chan": 1,
            "dur": 2,
            "note": 74,
            "part": "flute",
            "vel": 80
        },
        {
            "chan": 0,
            "dur": 2,
            "note": 86,
            "part": "picc",
            "vel": 80
        },
        {
            "chan": 2,
            "dur": 2,
            "note": 50,
            "part": "guit",
            "vel": 80
        },
        {
            "chan": 8,
            "dur": 2,
            "note": 38,
            "part": "bass",
            "vel": 80
        },
        {
            "chan": 9,
            "dur": 2,
            "note": 38,
            "part": "drum",
            "vel": 80
        },
        {
            "chan": 9,
            "dur": 2,
            "note": 42,
            "part": "drum",
            "vel": 80
        }
    ],
    "1078": [
        {
            "chan": 1,
            "dur": 2,
            "note": 70,
            "part": "flute",
            "vel": 80
        },
        {
            "chan": 0,
            "dur": 2,
            "note": 82,
            "part": "picc",
            "vel": 80
        },
        {
            "chan": 2,
            "dur": 2,
            "note": 46,
            "part": "guit",
            "vel": 80
        },
        {
            "chan": 8,
            "dur": 2,
            "note": 34,
            "part": "bass",
            "vel": 80
        },
        {
            "chan": 9,
            "dur": 2,
            "note": 38,
            "part": "drum",
            "vel": 80
        },
        {
            "chan": 9,
            "dur": 2,
            "note": 42,
            "part": "drum",
            "vel": 80
        }
    ],
    "1080": [
        {
            "chan": 1,
            "dur": 2,
            "note": 67,
            "part": "flute",
            "vel": 80
        },
        {
            "chan": 0,
            "dur": 2,
            "note": 79,
            "part": "picc",
            "vel": 80
        },
        {
            "chan": 2,
            "dur": 2,
            "note": 43,
            "part": "guit",
            "vel": 80
        },
        {
            "chan": 2,
            "dur": 2,
            "note": 50,
            "part": "guit",
            "vel": 80
        },
        {
            "chan": 2,
            "dur": 2,
            "note": 55,
            "part": "guit",
            "vel": 80
        },
        {
            "chan": 2,
            "dur": 2,
            "note": 58,
            "part": "guit",
            "vel": 80
        },
        {
            "chan": 2,
            "dur": 2,
            "note": 62,
            "part": "guit",
            "vel": 80
        },
        {
            "chan": 2,
            "dur": 2,
            "note": 67,
            "part": "guit",
            "vel": 80
        },
        {
            "chan": 8,
            "dur": 2,
            "note": 31,
            "part": "bass",
            "vel": 80
        },
        {
            "chan": 9,
            "dur": 2,
            "note": 40,
            "part": "drum",
            "vel": 80
        },
        {
            "chan": 9,
            "dur": 2,
            "note": 55,
            "part": "drum",
            "vel": 80
        },
        {
            "chan": 9,
            "dur": 32,
            "note": 36,
            "part": "drum",
            "vel": 80
        }
    ]
}
